<svg version="1.1" id="Layer_1" xmlns="http://www.w3.org/2000/svg" xmlns:xlink="http://www.w3.org/1999/xlink" x="0px" y="0px"
	 width="100%" viewBox="0 0 328 154" enable-background="new 0 0 328 154" xml:space="preserve">
<path fill="#FEFEFE" opacity="1.000000" stroke="none" 
	d="
M246.000000,155.000000 
	C164.000015,155.000000 82.500038,155.000000 1.000044,155.000000 
	C1.000029,103.666695 1.000029,52.333397 1.000015,1.000071 
	C110.333275,1.000047 219.666550,1.000047 328.999878,1.000024 
	C328.999908,52.333263 328.999908,103.666527 328.999939,154.999893 
	C301.500000,155.000000 274.000000,155.000000 246.000000,155.000000 
M225.891464,40.725899 
	C225.806793,40.676456 225.722122,40.627014 225.637451,40.577579 
	C225.758789,40.717991 225.880142,40.858402 226.063339,41.626644 
	C226.461273,42.053917 226.859192,42.481186 227.809525,43.169453 
	C227.918228,43.761719 228.026932,44.353989 227.469620,45.280277 
	C224.658554,50.173595 228.619583,54.562542 228.510406,59.254631 
	C229.573700,59.262680 230.636993,59.270733 231.781601,59.561329 
	C231.781601,59.561329 231.641495,59.819820 231.261566,60.324234 
	C231.440048,60.875885 231.618546,61.427532 231.932709,62.894897 
	C231.974243,66.260948 232.015778,69.626999 231.460632,73.399811 
	C226.898453,77.165268 226.850143,77.774956 230.722763,82.846123 
	C230.547653,83.113838 230.392975,83.397911 230.194000,83.646515 
	C229.176880,84.917213 228.148331,86.178772 227.123795,87.443535 
	C228.360031,87.971359 229.669144,88.377396 230.812027,89.061226 
	C231.956711,89.746117 232.935410,90.708427 233.330841,91.701271 
	C232.897537,91.817986 232.464218,91.934692 231.619812,91.561630 
	C231.107651,92.116943 230.595490,92.672264 230.083328,93.227577 
	C231.063629,93.812401 232.043915,94.397217 233.001633,95.001495 
	C233.001633,95.001495 233.015167,94.976555 233.068558,95.572510 
	C233.889816,95.626724 234.711090,95.680931 236.323181,95.754143 
	C249.442108,98.223442 262.253632,97.707077 275.449493,91.924797 
	C278.692139,91.893913 281.950897,92.024475 285.164734,91.704323 
	C285.859039,91.635155 286.391663,89.943436 287.539795,88.949928 
	C287.898529,88.712616 288.257263,88.475311 288.616028,88.238014 
	C288.471069,88.057663 288.326111,87.877319 288.181152,87.696960 
	C287.787628,88.131615 287.394135,88.566261 286.449127,88.533638 
	C286.257996,87.587593 286.066833,86.641556 285.849365,85.320061 
	C285.849365,85.320061 286.054230,85.004318 286.658173,84.924469 
	C286.693085,84.254761 286.727966,83.585060 286.838196,82.263191 
	C286.968048,81.845963 287.097900,81.428734 287.893799,80.847427 
	C288.062073,79.721527 288.230347,78.595619 288.398621,77.469727 
	C287.595459,77.914825 286.792297,78.359917 285.497559,78.919449 
	C285.335846,78.873093 285.174103,78.826736 284.679565,78.175316 
	C284.679565,76.294777 284.679565,74.414238 284.679565,72.315224 
	C283.700470,71.387749 282.287720,70.049477 280.959839,68.296326 
	C280.959839,68.296326 281.284302,68.024239 281.937714,68.113541 
	C283.116943,68.006187 285.192566,68.184860 285.332611,67.745934 
	C286.388397,64.437080 287.063568,61.006775 287.738831,56.884476 
	C287.280273,55.890690 287.084412,54.368515 286.320557,53.988724 
	C281.289307,51.487110 276.135712,49.231522 270.984558,46.249752 
	C270.507416,43.096703 269.360382,43.965195 267.419647,45.907433 
	C266.636078,45.208961 265.852478,44.510494 265.459259,43.336521 
	C266.638702,42.545467 267.818146,41.754417 269.691895,40.851803 
	C272.531372,38.138622 275.325195,35.420555 270.460663,31.314602 
	C270.503296,30.908394 270.545898,30.502184 271.171448,30.028561 
	C271.129486,28.697536 271.087524,27.366512 271.286957,25.904455 
	C271.180817,25.922846 271.074677,25.941238 270.487152,25.940979 
	C270.487152,25.940979 270.008820,25.998035 269.070679,25.966850 
	C260.027130,25.966850 250.983582,25.966850 241.453873,25.966850 
	C241.930664,28.058758 242.254303,29.478689 242.540970,31.730162 
	C242.377594,42.823715 242.214233,53.917267 241.669601,65.590508 
	C240.997040,67.041275 240.324493,68.492035 239.557190,70.147179 
	C239.142776,69.652634 238.547180,69.272400 238.549408,68.895706 
	C238.593277,61.460148 238.881271,54.021225 238.720581,46.591614 
	C238.655228,43.570427 237.645218,40.569672 237.065018,37.559624 
	C234.662186,38.366833 232.255356,39.162460 229.858521,39.987083 
	C228.929688,40.306641 228.023422,40.691807 226.553101,41.017601 
	C226.368332,41.012241 226.183548,41.006878 225.891464,40.725899 
M27.480154,100.204391 
	C27.217419,100.418900 27.062872,100.694160 26.913744,101.887459 
	C26.901119,108.941483 26.585194,116.016190 27.064104,123.036682 
	C27.204412,125.093506 29.246279,128.159012 31.046379,128.711945 
	C34.172298,129.672134 37.788719,129.035477 41.959335,129.044495 
	C45.356812,129.006851 48.754284,128.969208 52.964279,129.051666 
	C61.852699,132.008209 68.667686,129.510300 68.609283,124.028854 
	C64.831627,123.682175 61.121811,123.468246 57.463623,122.913734 
	C56.589321,122.781219 55.887115,121.513344 55.105755,120.767647 
	C55.740913,120.358742 56.376072,119.949837 57.770027,119.750946 
	C59.535778,119.512566 61.301529,119.274185 63.845592,119.164146 
	C69.568550,118.585304 70.867081,117.092667 69.775093,112.922203 
	C71.581818,108.826042 68.620026,106.912544 65.667038,104.142151 
	C62.019566,104.046547 58.372093,103.950943 54.148544,103.841438 
	C53.767944,103.881859 53.387348,103.922279 52.885956,103.284584 
	C51.573353,102.522484 50.260750,101.760376 47.681961,100.263115 
	C48.273983,103.370445 48.613903,105.154556 48.999474,106.994148 
	C48.999474,106.994148 48.930325,106.974731 48.494389,107.226646 
	C48.353859,107.521820 48.213329,107.816994 48.006721,108.571640 
	C48.006721,108.571640 47.826817,108.999565 47.447617,109.262306 
	C47.213844,109.483978 47.079830,109.754982 47.009407,110.001625 
	C47.009407,110.001625 47.073441,110.053009 46.350445,110.122375 
	C45.742683,111.776505 44.931911,113.388535 44.577900,115.095299 
	C44.122654,117.290154 44.033871,119.561028 43.787231,121.799156 
	C43.323608,121.782379 42.859989,121.765610 42.396366,121.748833 
	C41.866074,118.950935 41.335781,116.153030 40.805489,113.355133 
	C40.184341,113.460823 39.563198,113.566505 38.942051,113.672195 
	C39.149601,115.906105 39.357147,118.140015 39.668514,121.491348 
	C37.968620,120.505585 36.821499,119.840370 35.383007,118.320061 
	C35.439644,116.233765 35.496281,114.147476 36.100235,112.141190 
	C38.254852,110.521957 43.622688,114.286987 42.994896,108.003418 
	C42.994896,108.003418 43.013714,107.999702 43.717571,107.923103 
	C44.307018,106.955528 45.394424,105.985573 45.389797,105.020851 
	C45.377380,102.432579 36.614269,95.054062 34.114082,95.465797 
	C33.619896,95.547188 33.346355,96.968414 32.500950,97.940079 
	C32.088165,97.666824 31.675383,97.393570 30.496738,97.048767 
	C29.646509,97.996407 28.796282,98.944046 27.977928,99.962608 
	C27.977928,99.962608 27.900255,99.966324 27.480154,100.204391 
M201.999847,27.667156 
	C201.999954,28.111500 202.000061,28.555845 201.999954,29.800411 
	C202.000351,30.867100 202.000748,31.933788 202.000580,33.937729 
	C202.000580,65.957474 202.000595,97.977219 202.064972,130.670547 
	C202.812088,131.873474 203.559189,133.076401 204.961990,135.335037 
	C204.961990,133.014938 204.961990,132.078674 205.622574,131.141174 
	C206.049500,131.033539 206.476440,130.925903 207.166809,131.383926 
	C207.744644,131.506653 208.322464,131.629379 208.900299,131.752106 
	C208.317703,130.833511 207.735092,129.914902 207.030869,128.066635 
	C207.026566,96.083328 207.022644,64.100029 207.016907,32.116726 
	C207.016602,30.451490 207.171387,28.756580 206.889847,27.138859 
	C206.803833,26.644712 205.498795,26.362724 204.266571,25.713650 
	C203.510941,26.142622 202.755295,26.571594 201.999847,27.667156 
M183.997742,121.999168 
	C183.997742,121.999168 184.019867,121.963890 184.029297,121.034729 
	C183.787384,115.703300 183.545471,110.371880 183.145477,104.279495 
	C183.193863,103.507957 183.242264,102.736420 183.742371,101.422905 
	C183.914520,99.405411 184.907715,96.924507 184.085709,95.468132 
	C182.439713,92.551857 179.426910,92.527191 172.034088,94.325378 
	C172.988647,94.650963 173.563522,94.847046 174.039825,95.697906 
	C173.983673,96.135040 173.927536,96.572166 173.576141,97.195427 
	C173.678177,97.462021 173.780212,97.728615 174.003021,98.863060 
	C173.963257,100.903954 173.923477,102.944839 173.102417,104.996605 
	C171.768692,104.704391 170.434814,104.201523 169.101318,104.202568 
	C168.355652,104.203148 167.610626,105.039764 166.331726,105.245361 
	C165.850479,104.915192 165.369232,104.585022 164.979233,103.585793 
	C164.260712,102.548691 163.542191,101.511589 162.823669,100.474495 
	C162.209839,101.289505 161.596024,102.104515 160.224655,103.002403 
	C156.212616,100.511955 153.559052,104.558899 149.580780,104.856026 
	C146.545578,103.578995 143.368958,102.554230 140.514908,100.954102 
	C137.652649,99.349365 137.007034,100.423721 136.155594,103.131660 
	C134.775284,103.044662 133.394989,102.957664 131.835129,102.154167 
	C126.628662,99.798813 123.637817,101.592628 123.180962,107.047401 
	C123.180962,107.047401 123.298477,107.285378 122.491554,107.047211 
	C118.250954,105.001907 116.765572,106.977745 116.135094,110.361465 
	C114.419281,108.200691 112.703461,106.039925 110.561035,103.422531 
	C110.156242,103.349915 109.751457,103.277298 109.222855,103.434395 
	C109.222855,103.434395 108.965714,103.389931 108.996101,102.583481 
	C110.129028,101.262962 111.261948,99.942444 113.147263,97.744949 
	C109.934692,96.781303 106.966995,95.891106 103.892159,94.318649 
	C102.928276,92.951637 101.964401,91.584625 101.803314,90.137115 
	C104.845116,90.366234 107.886917,90.595352 111.228821,91.458839 
	C113.974098,91.609001 116.720085,91.813034 119.462875,91.776527 
	C119.628761,91.774323 119.769173,89.858093 120.183723,88.292130 
	C120.741631,88.080200 121.299538,87.868271 122.246910,88.277351 
	C123.115616,87.714462 123.984322,87.151581 125.285332,86.051613 
	C128.120819,83.239815 131.378937,80.738983 133.717163,77.561279 
	C142.859024,65.137314 142.193176,49.661446 132.342560,37.610661 
	C123.634048,26.957069 109.028625,23.048269 96.352715,27.978817 
	C83.011444,33.168167 74.809120,45.724056 75.484451,59.923370 
	C76.156807,74.060120 85.411263,85.624985 98.962547,90.012589 
	C98.293533,91.737343 97.624527,93.462105 96.835388,95.496559 
	C99.849487,95.287300 101.925201,95.143196 104.017525,95.745972 
	C106.697166,99.939919 106.697166,99.939919 102.222939,103.952827 
	C101.444153,103.844986 100.665359,103.737144 99.550415,103.119774 
	C96.692924,101.046768 97.151405,103.434837 96.687447,105.620178 
	C89.440704,112.276581 89.522118,122.620544 97.148277,127.764809 
	C103.249527,131.407578 109.119331,131.099625 115.386101,126.856155 
	C115.591034,125.237595 115.795975,123.619026 116.545898,121.609886 
	C117.463188,120.359337 118.380486,119.108795 119.973282,118.259598 
	C121.222641,121.643738 119.821686,126.434860 125.727783,127.962883 
	C126.715530,127.782394 128.504227,127.290009 128.573257,127.467278 
	C130.088684,131.358871 133.266922,129.859879 136.395447,130.457153 
	C138.857208,131.623703 140.041702,130.813538 140.291412,127.685097 
	C140.442230,127.600243 140.593048,127.515396 141.055649,128.015305 
	C143.397537,127.403763 146.674957,131.450577 148.671478,126.820229 
	C148.788818,126.964958 148.906158,127.109688 149.211777,127.611092 
	C149.390366,127.827477 149.616913,127.964729 150.487778,128.172119 
	C151.377640,128.647781 152.267487,129.123444 153.135635,130.331680 
	C158.151230,131.646088 163.166840,132.960495 168.182434,134.274918 
	C168.267578,133.898132 168.352707,133.521347 168.437851,133.144577 
	C167.624496,132.091370 166.811142,131.038177 166.673218,129.980225 
	C167.604065,129.195480 168.534912,128.410751 169.866592,127.288094 
	C170.189453,127.467888 171.133743,127.993729 171.848572,128.391800 
	C173.049957,127.473930 174.140854,126.640480 175.109222,125.947899 
	C175.109222,125.947899 175.182724,125.776268 175.193130,126.272675 
	C175.301880,126.607986 175.516617,126.848755 176.227325,127.636452 
	C179.820572,130.234772 183.705582,130.133484 188.312988,128.971436 
	C189.395462,129.464264 190.477921,129.957092 191.560394,130.449921 
	C191.588562,129.194107 191.658447,127.937332 191.629486,126.682838 
	C191.611664,125.910873 191.375137,125.144302 191.353256,124.372017 
	C191.248886,120.689865 189.677338,120.188553 186.753830,122.639572 
	C186.753830,122.639572 186.483749,122.936737 186.534683,122.980141 
	C186.534683,122.980141 186.589645,122.941971 185.794601,122.668770 
	C185.515854,122.639885 185.237122,122.611000 184.734589,122.271622 
	C184.533798,122.098137 184.301041,122.002174 183.997742,121.999168 
M225.434570,130.527100 
	C225.343430,132.519272 225.252274,134.511444 225.138626,136.995712 
	C227.534317,136.255905 229.107513,135.770096 230.237503,135.421158 
	C228.673431,133.420258 227.336411,131.709824 226.819611,129.982437 
	C227.364929,129.932693 227.910263,129.882935 228.772507,129.794617 
	C228.772507,129.794617 228.991409,130.027008 229.121979,130.720184 
	C231.440384,133.286911 233.189346,131.461884 235.378510,129.492874 
	C236.165726,128.869308 236.952927,128.245728 238.178757,128.256790 
	C239.152100,128.469162 240.125427,128.681549 240.989929,128.978043 
	C240.989929,128.978043 241.095917,128.888092 241.050369,129.610031 
	C243.311081,132.414948 242.915283,138.409058 250.033524,136.386795 
	C247.917847,135.318008 246.468369,134.585785 243.791046,133.233261 
	C246.001282,132.651367 247.171906,131.914642 247.871429,132.228363 
	C252.505859,134.306900 255.555969,130.576294 259.726044,129.447845 
	C259.726044,129.447845 260.016449,129.806549 260.366821,130.434418 
	C264.016022,132.581421 267.490387,132.245911 271.792725,131.883316 
	C277.307526,131.418503 282.615845,131.195358 288.058777,129.225754 
	C288.058777,129.225754 288.159241,129.578613 288.124908,130.292740 
	C289.202576,132.571472 290.164398,132.477325 291.592926,129.923920 
	C292.307220,129.248520 293.021515,128.573120 294.297852,128.202499 
	C294.850891,128.698288 295.403931,129.194092 295.923248,129.659622 
	C296.149902,124.854881 296.363403,120.329613 296.563690,116.084579 
	C294.694427,115.359947 292.923584,114.673477 290.797119,113.641151 
	C290.797119,113.641151 290.618042,113.178520 291.192505,112.857529 
	C291.144989,112.150894 291.354034,111.008232 291.009888,110.805756 
	C287.903870,108.978195 284.743561,107.225945 281.491913,105.676666 
	C280.808746,105.351151 279.685455,105.949287 278.165649,106.185059 
	C277.775421,106.097939 277.385223,106.010818 276.488922,105.401329 
	C274.311646,105.853699 270.813019,105.649757 270.201935,106.880043 
	C268.278198,110.753128 265.192017,109.684021 262.260406,110.128082 
	C261.321381,110.270325 260.605255,111.884377 259.062805,112.821693 
	C255.204178,111.200615 251.345566,109.579536 247.707642,108.051186 
	C246.301758,109.020966 243.903152,110.966446 243.708054,110.766106 
	C241.136505,108.125420 238.192978,109.686287 235.417816,109.679298 
	C230.596985,109.667152 225.671722,109.347328 222.363449,114.482994 
	C223.238373,114.787834 223.972275,115.043549 224.426956,115.969032 
	C223.897476,117.314247 223.368011,118.659462 222.542557,120.182686 
	C222.488663,120.283531 222.363495,120.425507 222.393692,120.477821 
	C222.502182,120.665794 222.663162,120.823471 222.962952,121.701279 
	C223.147888,122.890694 223.332809,124.080109 223.115509,125.950027 
	C220.569397,129.798721 225.443115,128.362518 225.434570,130.527100 
M84.056892,112.148415 
	C84.099808,110.092087 84.142715,108.035759 84.657257,105.458870 
	C85.110657,102.578575 86.979904,99.527451 83.090851,96.765709 
	C80.528023,96.396469 77.965202,96.027222 75.063499,95.609161 
	C75.063499,104.829384 74.940216,113.110313 75.123154,121.384483 
	C75.198097,124.774139 76.105141,128.178772 80.245552,128.789093 
	C82.621552,129.139343 85.091446,128.852570 87.947517,128.852570 
	C90.995201,124.235397 90.995201,124.235397 84.935951,120.478973 
	C84.686981,117.993034 84.438011,115.507088 84.056892,112.148415 
M266.946808,107.800095 
	C265.268219,107.126213 263.589600,106.452339 261.911011,105.778458 
	C261.764618,106.442192 261.618256,107.105919 261.471893,107.769653 
	C263.093628,107.849945 264.715332,107.930244 266.946808,107.800095 
M218.070114,116.368797 
	C218.497711,116.708572 218.925323,117.048340 219.352936,117.388107 
	C219.352936,115.970848 219.352936,114.553589 219.352936,113.136337 
	C218.900177,113.162247 218.447403,113.188156 217.994644,113.214066 
	C217.994644,114.039864 217.994644,114.865654 218.070114,116.368797 
M258.779907,133.065704 
	C258.542450,133.681992 258.305023,134.298279 258.067596,134.914566 
	C258.917297,135.003891 259.766998,135.093231 260.616699,135.182556 
	C260.229614,134.484329 259.842560,133.786118 258.779907,133.065704 
M114.110619,94.199661 
	C114.990524,94.736786 115.870430,95.273911 116.750336,95.811028 
	C116.985359,95.354500 117.220375,94.897972 117.455399,94.441444 
	C116.569267,94.311363 115.683128,94.181290 114.110619,94.199661 
M273.980927,135.751038 
	C274.821289,135.597931 275.661652,135.444824 276.502014,135.291718 
	C276.327972,134.831131 276.153961,134.370529 275.979950,133.909943 
	C275.157379,134.377197 274.334839,134.844452 273.980927,135.751038 
M98.101181,98.917587 
	C99.167030,99.145996 100.232887,99.374405 101.298737,99.602814 
	C101.350479,99.184219 101.402229,98.765625 101.453972,98.347031 
	C100.270882,98.347031 99.087784,98.347031 98.101181,98.917587 
M219.313309,125.477364 
	C218.975906,126.022751 218.638489,126.568138 218.301086,127.113533 
	C218.574188,127.248169 218.847305,127.382797 219.120422,127.517433 
	C219.324631,126.983276 219.528839,126.449120 219.313309,125.477364 
M226.143097,63.490688 
	C226.569412,63.793613 226.995728,64.096542 227.422043,64.399460 
	C227.535675,63.951157 227.649307,63.502857 227.762939,63.054558 
	C227.263809,63.000965 226.764664,62.947372 226.143097,63.490688 
M51.532909,98.718735 
	C50.958324,98.608696 50.383743,98.498657 49.809162,98.388618 
	C49.803371,98.796150 49.797581,99.203690 49.791790,99.611229 
	C50.369083,99.512901 50.946377,99.414581 51.532909,98.718735 
M291.704193,136.566437 
	C291.989258,136.294586 292.274323,136.022720 292.559387,135.750870 
	C292.446533,135.632996 292.241943,135.406342 292.234131,135.412933 
	C291.933411,135.666672 291.650635,135.941711 291.704193,136.566437 
M256.296448,108.432648 
	C256.012115,108.704117 255.727783,108.975578 255.443466,109.247047 
	C255.555939,109.364761 255.668411,109.482468 255.780869,109.600189 
	C256.065247,109.328438 256.349640,109.056694 256.296448,108.432648 
M236.031967,105.820068 
	C236.436478,105.725739 236.840973,105.631401 237.245483,105.537064 
	C237.156708,105.417145 237.052719,105.185959 236.981644,105.195671 
	C236.571030,105.251793 236.168213,105.364807 236.031967,105.820068 
M219.739685,120.185799 
	C219.624481,120.026985 219.509277,119.868172 219.394089,119.709358 
	C219.417450,119.930504 219.440826,120.151657 219.739685,120.185799 
M243.816223,106.737289 
	C243.973251,106.623688 244.130280,106.510086 244.287292,106.396469 
	C244.068771,106.419312 243.850235,106.442146 243.816223,106.737289 
M167.185303,98.262619 
	C167.027313,98.376945 166.869308,98.491272 166.711304,98.605591 
	C166.931305,98.582535 167.151306,98.559479 167.185303,98.262619 
M54.182976,98.266609 
	C54.026768,98.378967 53.870560,98.491325 53.714348,98.603683 
	C53.931866,98.581322 54.149387,98.558968 54.182976,98.266609 
M296.586273,131.517242 
	C296.586273,131.517242 296.475891,131.582642 296.586273,131.517242 
M296.413635,133.483078 
	C296.413635,133.483078 296.522003,133.418915 296.413635,133.483078 
M264.412079,134.482483 
	C264.412079,134.482483 264.523224,134.416092 264.412079,134.482483 
M225.517838,106.413773 
	C225.517838,106.413773 225.582901,106.522888 225.517838,106.413773 
M170.517410,96.412735 
	C170.517410,96.412735 170.583176,96.523041 170.517410,96.412735 
M284.587006,105.517769 
	C284.587006,105.517769 284.477539,105.583008 284.587006,105.517769 
z"/>
<path fill="#E1292C" opacity="1.000000" stroke="none" 
	d="
M98.988075,89.294777 
	C85.411263,85.624985 76.156807,74.060120 75.484451,59.923370 
	C74.809120,45.724056 83.011444,33.168167 96.352715,27.978817 
	C109.028625,23.048269 123.634048,26.957069 132.342560,37.610661 
	C142.193176,49.661446 142.859024,65.137314 133.717163,77.561279 
	C131.378937,80.738983 128.120819,83.239815 124.736160,86.339966 
	C123.410469,86.971001 122.633957,87.313675 121.857437,87.656349 
	C121.299538,87.868271 120.741631,88.080200 119.657898,88.608078 
	C116.397629,89.557510 113.663170,90.190987 110.928719,90.824471 
	C107.886917,90.595352 104.845116,90.366234 101.131622,90.048386 
	C99.969315,89.738029 99.478691,89.516403 98.988075,89.294777 
M120.849289,48.650921 
	C120.563377,46.798378 120.277466,44.945835 119.502548,42.907249 
	C119.333710,42.950935 119.164871,42.994621 118.111427,42.853149 
	C115.401550,42.877216 112.691666,42.901283 109.635925,42.649715 
	C109.635925,42.649715 109.200569,42.571888 109.100113,41.739227 
	C108.731094,38.865513 108.362076,35.991802 107.252457,32.955719 
	C106.508675,33.062546 105.764893,33.169373 104.378311,33.335651 
	C103.140083,34.179008 101.901863,35.022366 100.194916,36.020500 
	C99.902328,36.214294 99.728050,36.484417 99.054825,37.052551 
	C98.256569,38.321259 97.458313,39.589966 96.138329,41.537029 
	C96.068604,49.337696 96.014229,57.138542 95.920731,64.938927 
	C95.888458,67.630898 95.175720,70.464638 95.793228,72.983719 
	C97.138069,78.469803 100.816704,81.758675 106.354424,83.692184 
	C111.040291,85.328255 114.872971,83.647232 118.016815,81.361641 
	C119.815048,80.054321 119.736649,76.165680 120.503174,73.439240 
	C119.831383,73.759773 119.159592,74.080315 118.487801,74.400848 
	C115.313438,72.602577 112.139069,70.804298 109.067741,68.077553 
	C109.051987,63.388435 109.036224,58.699318 109.640625,53.858639 
	C110.474075,53.720402 111.307533,53.582169 112.594215,53.592796 
	C112.594215,53.592796 113.031166,53.401344 113.786659,53.560860 
	C114.522667,53.352718 115.258667,53.144577 116.682503,52.987919 
	C117.938377,51.829117 119.194252,50.670319 120.472542,49.352303 
	C120.472542,49.352303 120.363045,49.234562 120.849289,48.650921 
z"/>
<path fill="#E1292C" opacity="1.000000" stroke="none" 
	d="
M265.068909,43.812027 
	C265.852478,44.510494 266.636078,45.208961 267.892883,46.151802 
	C269.251404,46.562687 270.136688,46.729202 271.022003,46.895718 
	C276.135712,49.231522 281.289307,51.487110 286.320557,53.988724 
	C287.084412,54.368515 287.280273,55.890690 287.496887,57.441566 
	C285.264740,61.340519 283.274506,64.682381 281.284302,68.024239 
	C281.284302,68.024239 280.959839,68.296326 280.622681,68.675537 
	C269.190491,82.024582 255.050354,88.571892 238.022827,88.730103 
	C238.332336,87.268883 238.666275,86.158333 239.315277,84.925262 
	C252.119476,73.351219 257.940979,58.632179 260.288116,42.031097 
	C262.039398,42.683475 263.554138,43.247753 265.068909,43.812027 
z"/>
<path fill="#E1292D" opacity="1.000000" stroke="none" 
	d="
M242.050858,65.010818 
	C242.214233,53.917267 242.377594,42.823715 242.718262,30.983822 
	C242.687103,27.098913 244.642578,26.923435 247.069916,26.956747 
	C254.718933,27.061718 262.369965,27.020075 270.113373,27.416418 
	C270.333862,28.563765 270.461212,29.329868 270.588562,30.095974 
	C270.545898,30.502184 270.503296,30.908394 270.394379,32.004391 
	C269.871033,35.089413 269.413940,37.484646 268.581055,39.972149 
	C264.252136,38.721245 260.299072,37.378071 256.364990,36.041351 
	C256.081085,36.798779 255.880722,37.100315 255.863800,37.411816 
	C254.955566,54.127590 249.527603,69.170616 239.117477,82.324799 
	C238.444290,83.175446 237.029358,83.439064 235.975922,83.998032 
	C235.992401,84.020317 236.042816,83.996758 236.006317,83.667419 
	C235.968063,82.896385 235.966309,82.454704 236.205872,81.839890 
	C236.522446,81.035591 236.392288,80.269020 236.705093,79.794434 
	C239.473999,75.593544 242.409500,71.499344 245.070404,67.233055 
	C245.593506,66.394363 245.145752,64.950142 245.145752,63.672657 
	C243.795425,64.256516 242.923141,64.633667 242.050858,65.010818 
z"/>
<path fill="#DE2C2F" opacity="1.000000" stroke="none" 
	d="
M149.023499,127.254417 
	C148.906158,127.109688 148.788818,126.964958 148.301575,126.378998 
	C143.227219,118.319382 143.773956,113.238640 150.175049,105.090721 
	C153.559052,104.558899 156.212616,100.511955 160.942825,103.083069 
	C162.736664,103.527435 163.812317,103.891144 164.887985,104.254852 
	C165.369232,104.585022 165.850479,104.915192 166.767349,105.664154 
	C172.671402,113.625092 170.849442,118.004440 161.706329,119.259636 
	C159.224274,119.600380 156.734268,119.883263 153.707352,120.259964 
	C158.031113,125.767006 163.406723,123.076721 169.079895,122.932938 
	C167.707336,125.476128 166.811966,127.135124 165.514740,128.885010 
	C161.127701,129.183640 157.142517,129.391373 153.157349,129.599106 
	C152.267487,129.123444 151.377640,128.647781 150.121002,127.894028 
	C149.590378,127.334274 149.346802,127.213768 149.023499,127.254417 
M156.833649,115.008461 
	C158.573212,114.325340 160.312790,113.642227 162.052353,112.959106 
	C162.027740,112.349541 162.003113,111.739975 161.978500,111.130409 
	C160.336761,110.620537 158.649445,109.620689 157.068817,109.767746 
	C155.958115,109.871086 154.807587,111.422455 154.095047,112.584801 
	C153.921188,112.868408 155.397003,114.163315 156.833649,115.008461 
z"/>
<path fill="#F6F7F3" opacity="1.000000" stroke="none" 
	d="
M238.047272,89.080772 
	C255.050354,88.571892 269.190491,82.024582 280.580261,68.882965 
	C282.287720,70.049477 283.700470,71.387749 284.679565,72.315224 
	C284.679565,74.414238 284.679565,76.294777 284.481140,78.602036 
	C281.430817,80.068123 278.578857,81.107491 275.486389,82.234520 
	C276.450745,83.431190 277.167572,84.320717 277.924316,85.259773 
	C276.021973,86.650993 274.449646,87.800842 272.513977,88.997215 
	C259.753571,94.817078 246.998856,95.142517 233.986862,91.549141 
	C232.935410,90.708427 231.956711,89.746117 230.812027,89.061226 
	C229.669144,88.377396 228.360031,87.971359 227.123795,87.443527 
	C228.148331,86.178772 229.176880,84.917213 230.194000,83.646515 
	C230.392975,83.397911 230.547653,83.113838 230.717728,82.842834 
	C226.850143,77.774956 226.898453,77.165268 231.831650,73.653603 
	C232.122894,77.306595 232.043121,80.705795 231.957397,84.389084 
	C232.708817,85.226280 233.466187,85.779396 234.394913,86.553665 
	C235.726608,87.543465 236.886932,88.312119 238.047272,89.080772 
z"/>
<path fill="#DE2E31" opacity="1.000000" stroke="none" 
	d="
M231.963333,84.104996 
	C232.043121,80.705795 232.122894,77.306595 232.129990,73.450226 
	C232.015778,69.626999 231.974243,66.260948 231.930450,62.163666 
	C231.832642,60.894897 231.737076,60.357357 231.641495,59.819820 
	C231.641495,59.819820 231.781601,59.561329 231.816116,59.128708 
	C230.612305,54.112812 229.373962,49.529533 228.135620,44.946259 
	C228.026932,44.353989 227.918228,43.761719 227.473297,42.731171 
	C227.126999,41.877621 227.116943,41.462357 227.106873,41.047089 
	C228.023422,40.691807 228.929688,40.306641 229.858521,39.987083 
	C232.255356,39.162460 234.662186,38.366833 237.065018,37.559624 
	C237.645218,40.569672 238.655228,43.570427 238.720581,46.591614 
	C238.881271,54.021225 238.593277,61.460148 238.549408,68.895706 
	C238.547180,69.272400 239.142776,69.652634 239.557190,70.147179 
	C240.324493,68.492035 240.997040,67.041275 241.860229,65.300667 
	C242.923141,64.633667 243.795425,64.256516 245.145752,63.672657 
	C245.145752,64.950142 245.593506,66.394363 245.070404,67.233055 
	C242.409500,71.499344 239.473999,75.593544 236.705093,79.794434 
	C236.392288,80.269020 236.522446,81.035591 235.856842,81.793022 
	C234.165451,82.647858 233.064392,83.376434 231.963333,84.104996 
z"/>
<path fill="#E2282B" opacity="1.000000" stroke="none" 
	d="
M96.856354,127.079178 
	C89.522118,122.620544 89.440704,112.276581 97.183350,105.262222 
	C98.415016,104.479279 99.150795,104.054291 99.886574,103.629303 
	C100.665359,103.737144 101.444153,103.844986 102.992409,103.943649 
	C105.496490,103.752953 107.231102,103.571442 108.965714,103.389931 
	C108.965714,103.389931 109.222855,103.434395 109.497253,103.551636 
	C110.176979,103.738968 110.582314,103.809067 110.987640,103.879158 
	C112.703461,106.039925 114.419281,108.200691 116.428917,110.801102 
	C116.852745,111.565849 116.982742,111.890961 117.033600,112.614502 
	C117.104851,113.519775 117.255234,114.026611 117.433365,114.553963 
	C117.461098,114.574471 117.403305,114.615715 117.207321,114.779602 
	C117.003525,115.113632 116.995697,115.283768 116.940048,115.465813 
	C116.892227,115.477715 116.795647,115.458015 116.476433,115.592010 
	C115.080841,116.804916 114.004463,117.883835 112.686935,118.954163 
	C112.445786,118.945564 111.994446,119.116417 111.744705,119.071472 
	C111.335770,119.083740 111.176567,119.140945 110.628738,119.153763 
	C109.470505,119.233276 108.700897,119.357185 107.715836,119.375618 
	C107.500389,119.270142 107.020729,119.260567 106.699051,119.213638 
	C105.601616,119.396049 104.825859,119.625397 103.882195,119.547569 
	C102.592529,119.545959 101.470779,119.851532 100.349022,120.157104 
	C100.902603,121.117508 101.456192,122.077911 102.002731,123.405518 
	C101.881439,127.360016 100.020676,128.232681 96.856354,127.079178 
M100.898773,111.701668 
	C100.061768,116.848450 103.804672,113.447144 105.298141,113.807838 
	C106.128029,114.008278 107.369759,112.503494 108.425880,111.767258 
	C107.293175,110.963837 106.209129,109.616150 105.014153,109.509346 
	C103.807678,109.401505 102.491219,110.524170 100.898773,111.701668 
z"/>
<path fill="#F9F3F2" opacity="1.000000" stroke="none" 
	d="
M224.706177,115.299255 
	C223.972275,115.043549 223.238373,114.787834 222.363449,114.482994 
	C225.671722,109.347328 230.596985,109.667152 235.417816,109.679298 
	C238.192978,109.686287 241.136505,108.125420 243.708054,110.766106 
	C243.903152,110.966446 246.301758,109.020966 247.707642,108.051186 
	C251.345566,109.579536 255.204178,111.200615 259.478699,112.864220 
	C259.894623,112.906746 259.993896,112.994225 259.917847,113.273407 
	C259.853943,113.937157 259.866058,114.321732 259.559174,114.898758 
	C257.022522,119.232018 257.939880,120.562477 267.195068,125.272934 
	C263.232025,125.272934 260.720551,125.272934 257.548157,125.272934 
	C258.225128,126.874420 258.749542,128.115051 259.273956,129.355667 
	C255.555969,130.576294 252.505859,134.306900 247.871429,132.228363 
	C247.171906,131.914642 246.001282,132.651367 243.791046,133.233261 
	C246.468369,134.585785 247.917847,135.318008 250.033524,136.386795 
	C242.915283,138.409058 243.311081,132.414948 241.463135,129.321960 
	C244.746643,129.054153 247.628723,128.922653 250.485031,129.136124 
	C253.521149,129.363037 254.829239,127.808823 254.996353,125.133675 
	C255.161865,122.484207 255.356934,119.755150 254.915939,117.167175 
	C254.138275,112.603172 250.627121,111.673477 246.624390,111.907898 
	C243.158493,112.110886 239.979187,112.739227 240.122894,117.412796 
	C243.173630,117.412796 246.012146,117.412796 248.850662,117.412796 
	C238.910812,120.601852 237.658829,122.314499 241.098770,128.893921 
	C240.125427,128.681549 239.152100,128.469162 237.922180,127.597984 
	C237.020004,126.229530 236.444595,125.007889 235.715408,124.907921 
	C233.670914,124.627640 231.562943,124.810242 229.534073,124.810242 
	C227.863342,116.615013 229.987411,116.445572 237.836014,117.412712 
	C238.095886,113.913567 236.320770,111.711845 233.121384,112.088188 
	C230.230408,112.428246 227.504745,114.173599 224.706177,115.299255 
z"/>
<path fill="#E2292B" opacity="1.000000" stroke="none" 
	d="
M35.552917,112.061180 
	C35.496281,114.147476 35.439644,116.233765 35.393875,119.073853 
	C35.591022,124.980408 38.973106,123.521889 43.114868,122.366646 
	C42.310345,125.181580 41.754906,127.124985 41.199467,129.068390 
	C37.788719,129.035477 34.172298,129.672134 31.046379,128.711945 
	C29.246279,128.159012 27.204412,125.093506 27.064104,123.036682 
	C26.585194,116.016190 26.901119,108.941483 27.199707,101.363907 
	C27.623863,100.549011 27.762058,100.257668 27.900253,99.966324 
	C27.900255,99.966324 27.977928,99.962608 28.236034,99.780731 
	C29.416962,98.772682 30.339783,97.946495 31.262600,97.120316 
	C31.675383,97.393570 32.088165,97.666824 33.120960,97.913239 
	C34.435120,99.326500 35.129265,100.766586 35.921810,102.132805 
	C36.020210,102.058929 35.816746,102.191452 36.058632,102.531494 
	C38.408409,103.023140 40.516300,103.174751 43.013714,103.354378 
	C43.013714,105.069916 43.013714,106.534813 43.013714,107.999702 
	C43.013714,107.999702 42.994896,108.003418 42.636223,108.137779 
	C40.502842,110.363678 35.621586,106.941833 35.552917,112.061180 
z"/>
<path fill="#E32729" opacity="1.000000" stroke="none" 
	d="
M187.715332,128.878052 
	C183.705582,130.133484 179.820572,130.234772 176.066162,127.054878 
	C175.664246,126.240959 175.423477,126.008614 175.182724,125.776268 
	C175.182724,125.776268 175.109222,125.947899 175.118347,125.524147 
	C174.964981,124.160034 174.802521,123.219681 174.765411,121.804306 
	C174.890793,113.197777 174.890793,105.066246 174.890793,96.940758 
	C176.947220,96.420372 178.674286,95.983322 180.733978,95.710220 
	C181.807938,97.904404 182.549286,99.934647 183.290649,101.964890 
	C183.242264,102.736420 183.193863,103.507957 183.136444,105.116898 
	C183.424896,111.290825 183.722382,116.627357 184.019867,121.963890 
	C184.019867,121.963890 183.997742,121.999168 184.060196,122.240753 
	C184.401230,122.515602 184.679825,122.548859 184.958405,122.582123 
	C185.237122,122.611000 185.515854,122.639885 186.116028,122.901886 
	C186.437454,123.135010 186.515564,123.265656 186.515564,123.265656 
	C186.515564,123.265656 186.483749,122.936737 186.483749,122.936737 
	C186.483749,122.936737 186.753830,122.639572 187.145538,122.672836 
	C187.596603,124.763420 187.655975,126.820740 187.715332,128.878052 
z"/>
<path fill="#F9F4F2" opacity="1.000000" stroke="none" 
	d="
M149.877914,104.973373 
	C143.773956,113.238640 143.227219,118.319382 148.047394,126.262840 
	C146.674957,131.450577 143.397537,127.403763 141.007996,127.375961 
	C141.303284,125.238335 141.646210,123.740044 142.032715,122.051384 
	C138.635422,122.207832 135.888672,122.334320 132.992340,122.308136 
	C132.582336,122.011589 132.305099,121.962311 131.782349,121.743118 
	C130.696930,119.320755 129.840240,117.162895 129.114655,114.695282 
	C131.774841,107.973297 137.554062,111.313240 143.701065,110.146767 
	C140.889404,107.180313 138.936279,105.119690 136.983170,103.059067 
	C137.007034,100.423721 137.652649,99.349365 140.514908,100.954102 
	C143.368958,102.554230 146.545578,103.578995 149.877914,104.973373 
z"/>
<path fill="#DE3134" opacity="1.000000" stroke="none" 
	d="
M290.618042,113.178520 
	C290.618042,113.178520 290.797119,113.641151 291.047974,114.179306 
	C292.111145,119.110878 292.923462,123.504295 293.735809,127.897720 
	C293.021515,128.573120 292.307220,129.248520 290.950806,129.948944 
	C289.592224,129.842194 288.875732,129.710403 288.159241,129.578613 
	C288.159241,129.578613 288.058777,129.225754 287.813538,128.760559 
	C287.146240,126.603813 286.811096,124.884392 286.280212,123.227707 
	C285.609131,121.133354 284.956390,117.413147 283.986603,117.310349 
	C279.390594,116.823151 282.117035,121.639923 280.318756,123.470695 
	C280.253906,123.536736 280.720276,124.006279 280.759796,124.311012 
	C281.273987,128.275345 279.577026,129.720215 275.082214,128.654541 
	C275.082214,121.512337 275.049347,114.346031 275.164032,107.182083 
	C275.170898,106.752960 276.357391,106.342720 276.994995,105.923691 
	C277.385223,106.010818 277.775421,106.097939 278.623596,106.495880 
	C279.994415,108.782242 280.907288,110.757782 281.392517,111.807884 
	C284.696228,112.298714 287.657135,112.738617 290.618042,113.178520 
z"/>
<path fill="#F9F3F2" opacity="1.000000" stroke="none" 
	d="
M276.741943,105.662506 
	C276.357391,106.342720 275.170898,106.752960 275.164032,107.182083 
	C275.049347,114.346031 275.082214,121.512337 275.082214,128.654541 
	C279.577026,129.720215 281.273987,128.275345 280.759796,124.311012 
	C280.720276,124.006279 280.253906,123.536736 280.318756,123.470695 
	C282.117035,121.639923 279.390594,116.823151 283.986603,117.310349 
	C284.956390,117.413147 285.609131,121.133354 286.280212,123.227707 
	C286.811096,124.884392 287.146240,126.603813 287.659180,128.661469 
	C282.615845,131.195358 277.307526,131.418503 271.792725,131.883316 
	C267.490387,132.245911 264.016022,132.581421 260.611755,130.161316 
	C263.249481,129.599014 265.875824,129.818893 267.962189,128.861710 
	C269.672028,128.077255 271.803558,125.891296 271.803162,124.327087 
	C271.802734,122.631950 269.819855,120.578117 268.193909,119.356186 
	C266.891785,118.377625 264.830017,118.409866 263.357788,117.677589 
	C266.250366,117.141853 268.890564,116.922035 272.742493,116.601326 
	C271.152435,114.901268 270.032959,112.621208 268.603424,112.406624 
	C265.825592,111.989639 262.873688,112.732086 259.993896,112.994225 
	C259.993896,112.994225 259.894623,112.906746 259.840881,112.865891 
	C260.605255,111.884377 261.321381,110.270325 262.260406,110.128082 
	C265.192017,109.684021 268.278198,110.753128 270.201935,106.880043 
	C270.813019,105.649757 274.311646,105.853699 276.741943,105.662506 
M271.725861,110.616104 
	C272.226898,110.390610 272.736481,110.180122 273.212067,109.909805 
	C273.248230,109.889259 273.043427,109.444672 272.950623,109.197205 
	C272.422272,109.528351 271.893921,109.859505 271.725861,110.616104 
z"/>
<path fill="#DC3133" opacity="1.000000" stroke="none" 
	d="
M84.854355,121.379440 
	C90.995201,124.235397 90.995201,124.235397 87.947517,128.852570 
	C85.091446,128.852570 82.621552,129.139343 80.245552,128.789093 
	C76.105141,128.178772 75.198097,124.774139 75.123154,121.384483 
	C74.940216,113.110313 75.063499,104.829384 75.063499,95.609161 
	C77.965202,96.027222 80.528023,96.396469 83.390244,97.378105 
	C83.854958,100.653481 84.020287,103.316452 84.185623,105.979431 
	C84.142715,108.035759 84.099808,110.092087 84.046326,113.013725 
	C84.308624,116.379173 84.581490,118.879303 84.854355,121.379440 
M79.992859,101.083374 
	C79.992859,107.894394 79.992859,114.705406 79.992859,122.581627 
	C84.218147,118.072296 83.782784,101.334358 80.212990,97.714279 
	C80.128281,98.688698 80.060539,99.467918 79.992859,101.083374 
z"/>
<path fill="#F6E9E7" opacity="1.000000" stroke="none" 
	d="
M235.959457,83.975754 
	C237.029358,83.439064 238.444290,83.175446 239.117477,82.324799 
	C249.527603,69.170616 254.955566,54.127590 255.863800,37.411816 
	C255.880722,37.100315 256.081085,36.798779 256.364990,36.041351 
	C260.299072,37.378071 264.252136,38.721245 268.593079,40.242943 
	C268.986481,40.602093 268.992035,40.782726 268.997559,40.963364 
	C267.818146,41.754417 266.638702,42.545467 265.264099,43.574272 
	C263.554138,43.247753 262.039398,42.683475 260.288116,42.031097 
	C257.940979,58.632179 252.119476,73.351219 239.014450,84.914940 
	C237.585526,84.676674 236.772491,84.326210 235.959457,83.975754 
z"/>
<path fill="#DE2F31" opacity="1.000000" stroke="none" 
	d="
M136.569382,103.095367 
	C138.936279,105.119690 140.889404,107.180313 143.701065,110.146767 
	C137.554062,111.313240 131.774841,107.973297 128.820312,114.820541 
	C123.986336,117.888481 129.542908,119.671768 128.675430,122.130310 
	C127.255875,124.099236 126.128937,125.915703 125.001999,127.732170 
	C119.821686,126.434860 121.222641,121.643738 119.624168,117.769531 
	C119.285851,116.893837 119.296638,116.508209 119.638443,115.929321 
	C119.924545,114.495728 119.879654,113.255402 119.997536,111.720016 
	C121.206367,110.045097 122.252426,108.665237 123.298477,107.285385 
	C123.298477,107.285378 123.180962,107.047401 123.546616,107.031250 
	C126.613075,105.633621 129.313873,104.252144 132.014679,102.870667 
	C133.394989,102.957664 134.775284,103.044662 136.569382,103.095367 
z"/>
<path fill="#F8F3F0" opacity="1.000000" stroke="none" 
	d="
M174.640045,122.279320 
	C174.802521,123.219681 174.964981,124.160034 175.179596,125.453712 
	C174.140854,126.640480 173.049957,127.473930 171.848572,128.391800 
	C171.133743,127.993729 170.189453,127.467888 169.866592,127.288094 
	C168.534912,128.410751 167.604065,129.195480 166.319580,129.684692 
	C165.949509,129.190811 165.933060,128.992477 165.916611,128.794128 
	C166.811966,127.135124 167.707336,125.476128 169.079895,122.932938 
	C163.406723,123.076721 158.031113,125.767006 153.707352,120.259964 
	C156.734268,119.883263 159.224274,119.600380 161.706329,119.259636 
	C170.849442,118.004440 172.671402,113.625092 167.034149,105.791313 
	C167.610626,105.039764 168.355652,104.203148 169.101318,104.202568 
	C170.434814,104.201523 171.768692,104.704391 173.568817,105.454407 
	C174.236832,111.367912 174.438446,116.823616 174.640045,122.279320 
z"/>
<path fill="#E12B2F" opacity="1.000000" stroke="none" 
	d="
M57.011230,119.540924 
	C56.376072,119.949837 55.740913,120.358742 55.105759,120.767654 
	C55.887115,121.513344 56.589321,122.781219 57.463623,122.913734 
	C61.121811,123.468246 64.831627,123.682175 68.609283,124.028854 
	C68.667686,129.510300 61.852699,132.008209 52.362305,128.706390 
	C45.527412,123.684158 44.254017,118.709961 47.073441,110.053009 
	C47.073441,110.053009 47.009407,110.001625 47.258892,110.009125 
	C47.508377,110.016617 47.952309,109.873077 48.003643,110.202652 
	C49.034649,111.689484 50.014324,112.846733 50.975052,114.299850 
	C50.640575,115.061569 50.325047,115.527405 49.779411,115.866028 
	C50.393791,118.091690 51.238281,120.444580 51.746304,121.860016 
	C53.704105,120.073410 54.843178,119.033943 56.096420,118.222626 
	C56.463753,118.674744 56.716911,118.898705 56.977905,119.227478 
	C56.985741,119.332283 57.011230,119.540932 57.011230,119.540924 
z"/>
<path fill="#DC2C30" opacity="1.000000" stroke="none" 
	d="
M224.566559,115.634140 
	C227.504745,114.173599 230.230408,112.428246 233.121384,112.088188 
	C236.320770,111.711845 238.095886,113.913567 237.836014,117.412712 
	C229.987411,116.445572 227.863342,116.615013 229.534073,124.810242 
	C231.562943,124.810242 233.670914,124.627640 235.715408,124.907921 
	C236.444595,125.007889 237.020004,126.229530 237.702881,127.280670 
	C236.952927,128.245728 236.165726,128.869308 234.751953,129.729858 
	C232.414078,129.986908 230.702744,130.006958 228.991409,130.027008 
	C228.991409,130.027008 228.772507,129.794617 228.375305,129.559296 
	C226.491302,127.972488 225.004532,126.621002 223.517746,125.269524 
	C223.332809,124.080109 223.147888,122.890694 222.964020,121.102432 
	C222.922897,120.337273 222.880722,120.170967 222.838531,120.004669 
	C223.368011,118.659462 223.897476,117.314247 224.566559,115.634140 
z"/>
<path fill="#FFFFF0" opacity="1.000000" stroke="none" 
	d="
M202.000610,129.996964 
	C202.000595,97.977219 202.000580,65.957474 202.683136,33.655689 
	C203.810562,33.530025 204.255432,33.686401 204.542908,34.101223 
	C204.571838,35.982826 204.929108,37.607265 204.917007,39.228947 
	C204.832947,50.508057 204.613892,61.786259 204.549240,73.065392 
	C204.442978,91.601227 204.420883,110.137543 203.783310,129.023544 
	C202.802414,129.581268 202.401505,129.789124 202.000610,129.996964 
z"/>
<path fill="#54B35B" opacity="1.000000" stroke="none" 
	d="
M233.658844,91.625206 
	C246.998856,95.142517 259.753571,94.817078 272.888123,89.016335 
	C274.448639,89.415184 275.271637,89.841431 275.944641,90.505447 
	C275.367188,91.102867 274.939789,91.462517 274.512390,91.822159 
	C262.253632,97.707077 249.442108,98.223442 235.668732,95.522614 
	C234.347900,95.186241 233.681534,95.081398 233.015167,94.976555 
	C233.015167,94.976555 233.001633,95.001495 232.872620,94.709671 
	C232.506027,93.629044 232.268463,92.840233 232.030914,92.051407 
	C232.464218,91.934692 232.897537,91.817986 233.658844,91.625206 
z"/>
<path fill="#DF2A2F" opacity="1.000000" stroke="none" 
	d="
M263.105377,117.993507 
	C264.830017,118.409866 266.891785,118.377625 268.193909,119.356186 
	C269.819855,120.578117 271.802734,122.631950 271.803162,124.327087 
	C271.803558,125.891296 269.672028,128.077255 267.962189,128.861710 
	C265.875824,129.818893 263.249481,129.599014 260.436554,129.847382 
	C260.016449,129.806549 259.726044,129.447845 259.500000,129.401764 
	C258.749542,128.115051 258.225128,126.874420 257.548157,125.272934 
	C260.720551,125.272934 263.232025,125.272934 267.195068,125.272934 
	C257.939880,120.562477 257.022522,119.232018 259.590790,115.237076 
	C259.986572,116.297363 260.031708,117.211792 260.061371,117.813103 
	C261.332092,117.888412 262.218719,117.940956 263.105377,117.993507 
z"/>
<path fill="#D49B95" opacity="1.000000" stroke="none" 
	d="
M204.752029,25.983578 
	C205.498795,26.362724 206.803833,26.644712 206.889847,27.138859 
	C207.171387,28.756580 207.016602,30.451490 207.016907,32.116726 
	C207.022644,64.100029 207.026566,96.083328 207.020599,128.831024 
	C206.974670,130.003036 206.939026,130.410660 206.903366,130.818268 
	C206.476440,130.925903 206.049500,131.033539 205.312103,131.097198 
	C205.001633,131.053223 204.912613,131.016464 204.918335,130.625122 
	C204.949478,129.974060 204.974899,129.714355 205.273987,129.175751 
	C205.693924,127.924599 205.967255,126.952454 205.968140,125.980057 
	C205.997086,93.925980 206.009018,61.871880 205.972702,29.817842 
	C205.971283,28.559856 205.472336,27.302435 205.087433,26.062630 
	C204.969666,26.080507 204.752029,25.983578 204.752029,25.983578 
z"/>
<path fill="#F7EEEC" opacity="1.000000" stroke="none" 
	d="
M46.711945,110.087692 
	C44.254017,118.709961 45.527412,123.684158 51.956043,128.646332 
	C48.754284,128.969208 45.356812,129.006851 41.579403,129.056442 
	C41.754906,127.124985 42.310345,125.181580 43.114868,122.366646 
	C38.973106,123.521889 35.591022,124.980408 35.539558,119.501404 
	C36.821499,119.840370 37.968620,120.505585 39.668514,121.491348 
	C39.357147,118.140015 39.149601,115.906105 38.942051,113.672195 
	C39.563198,113.566505 40.184341,113.460823 40.805489,113.355133 
	C41.335781,116.153030 41.866074,118.950935 42.396366,121.748833 
	C42.859989,121.765610 43.323608,121.782379 43.787231,121.799156 
	C44.033871,119.561028 44.122654,117.290154 44.577900,115.095299 
	C44.931911,113.388535 45.742683,111.776505 46.711945,110.087692 
z"/>
<path fill="#D22F32" opacity="1.000000" stroke="none" 
	d="
M97.002319,127.421997 
	C100.020676,128.232681 101.881439,127.360016 102.239571,123.259651 
	C102.664948,122.708183 102.846436,122.669762 103.371948,122.788467 
	C104.956642,123.017555 106.197296,123.089523 107.643951,123.328911 
	C108.337013,123.372719 108.824066,123.249100 109.668488,123.172058 
	C111.638466,122.846397 113.251099,122.474152 114.916702,122.496620 
	C114.867615,124.209518 114.765549,125.527702 114.663483,126.845886 
	C109.119331,131.099625 103.249527,131.407578 97.002319,127.421997 
z"/>
<path fill="#54B45B" opacity="1.000000" stroke="none" 
	d="
M276.094666,90.267677 
	C275.271637,89.841431 274.448639,89.415184 273.251465,88.969818 
	C274.449646,87.800842 276.021973,86.650993 277.924316,85.259773 
	C277.167572,84.320717 276.450745,83.431190 275.486389,82.234520 
	C278.578857,81.107491 281.430817,80.068123 284.647583,78.904564 
	C285.174103,78.826736 285.335846,78.873093 286.056519,79.005318 
	C286.819580,79.731293 287.023651,80.371391 287.227753,81.011497 
	C287.097900,81.428734 286.968048,81.845963 286.575073,82.776932 
	C286.226044,83.861893 286.140137,84.433105 286.054230,85.004318 
	C286.054230,85.004318 285.849365,85.320061 285.613281,85.803986 
	C284.722626,87.246223 284.068115,88.204536 283.413574,89.162849 
	C280.514221,86.485756 278.504791,89.703835 276.094666,90.267677 
z"/>
<path fill="#DA292C" opacity="1.000000" stroke="none" 
	d="
M125.364891,127.847527 
	C126.128937,125.915703 127.255875,124.099236 128.690338,122.142319 
	C128.997864,122.001862 129.022415,122.030235 129.017090,122.428940 
	C129.736908,123.842224 130.462051,124.856804 131.187180,125.871391 
	C131.838760,124.734535 132.490341,123.597679 133.141922,122.460815 
	C135.888672,122.334320 138.635422,122.207832 142.032715,122.051384 
	C141.646210,123.740044 141.303284,125.238335 140.852112,127.083588 
	C140.593048,127.515396 140.442230,127.600243 139.828430,127.979187 
	C138.230072,128.811050 137.094696,129.348831 135.959335,129.886612 
	C133.266922,129.859879 130.088684,131.358871 128.573257,127.467278 
	C128.504227,127.290009 126.715530,127.782394 125.364891,127.847527 
z"/>
<path fill="#D92927" opacity="1.000000" stroke="none" 
	d="
M56.970066,119.122665 
	C56.716911,118.898705 56.463753,118.674744 56.370926,117.935333 
	C58.424137,115.813629 63.363441,119.307953 62.945328,113.370888 
	C63.328300,112.147156 63.604076,111.205505 64.013992,109.938385 
	C64.438522,108.732559 64.728912,107.852211 65.261307,106.975632 
	C65.503304,106.979408 65.987312,106.985558 66.128769,107.277603 
	C67.229698,109.402542 68.189171,111.235443 69.148636,113.068344 
	C70.867081,117.092667 69.568550,118.585304 63.021904,119.073105 
	C60.455502,119.028931 58.712784,119.075790 56.970066,119.122665 
z"/>
<path fill="#F7EEEC" opacity="1.000000" stroke="none" 
	d="
M35.823410,102.206680 
	C35.129265,100.766586 34.435120,99.326500 33.356018,97.829086 
	C33.346355,96.968414 33.619896,95.547188 34.114082,95.465797 
	C36.614269,95.054062 45.377380,102.432579 45.389797,105.020851 
	C45.394424,105.985573 44.307018,106.955528 43.365643,107.961403 
	C43.013714,106.534813 43.013714,105.069916 43.013714,103.354378 
	C40.516300,103.174751 38.408409,103.023140 36.403973,102.433243 
	C36.972637,101.295540 37.437847,100.596115 37.903061,99.896690 
	C37.535995,99.704666 37.168930,99.512642 36.801868,99.320625 
	C36.475716,100.282639 36.149563,101.244659 35.823410,102.206680 
z"/>
<path fill="#F9F4F2" opacity="1.000000" stroke="none" 
	d="
M107.437958,123.161484 
	C106.197296,123.089523 104.956642,123.017555 103.410858,122.492355 
	C103.420532,121.310997 103.735313,120.582870 104.050102,119.854736 
	C104.825859,119.625397 105.601616,119.396049 106.768265,119.349655 
	C107.159157,119.532600 107.552124,119.698082 107.552124,119.698082 
	C107.552124,119.698082 107.931282,119.481102 107.931282,119.481094 
	C108.700897,119.357185 109.470505,119.233276 110.728874,119.293396 
	C111.476570,119.357094 111.735512,119.236755 111.994446,119.116425 
	C111.994446,119.116417 112.445786,118.945564 113.077606,118.971535 
	C114.738159,117.817673 115.766899,116.637840 116.795647,115.458015 
	C116.795647,115.458015 116.892227,115.477715 117.512337,115.669464 
	C118.524109,115.948349 118.915771,116.035469 119.307434,116.122589 
	C119.296638,116.508209 119.285851,116.893837 119.286423,117.568855 
	C118.380486,119.108795 117.463188,120.359337 115.988281,121.821274 
	C115.241684,122.055740 115.052704,122.078819 114.863724,122.101906 
	C113.251099,122.474152 111.638466,122.846397 109.199142,123.151787 
	C108.060951,123.110451 107.749458,123.135963 107.437958,123.161484 
z"/>
<path fill="#F6F7F3" opacity="1.000000" stroke="none" 
	d="
M227.802628,45.113266 
	C229.373962,49.529533 230.612305,54.112812 231.775452,58.987438 
	C230.636993,59.270733 229.573700,59.262680 228.510406,59.254631 
	C228.619583,54.562542 224.658554,50.173595 227.802628,45.113266 
z"/>
<path fill="#F9F8F7" opacity="1.000000" stroke="none" 
	d="
M108.980911,102.986710 
	C107.231102,103.571442 105.496490,103.752953 103.380814,103.874054 
	C106.697166,99.939919 106.697166,99.939919 104.008759,95.372986 
	C104.000000,95.000000 103.999290,95.000916 103.999290,95.000916 
	C106.966995,95.891106 109.934692,96.781303 113.147263,97.744949 
	C111.261948,99.942444 110.129028,101.262962 108.980911,102.986710 
z"/>
<path fill="#F9F3F2" opacity="1.000000" stroke="none" 
	d="
M290.905273,113.018021 
	C287.657135,112.738617 284.696228,112.298714 281.392517,111.807884 
	C280.907288,110.757782 279.994415,108.782242 278.923279,106.464256 
	C279.685455,105.949287 280.808746,105.351151 281.491913,105.676666 
	C284.743561,107.225945 287.903870,108.978195 291.009888,110.805756 
	C291.354034,111.008232 291.144989,112.150894 290.905273,113.018021 
z"/>
<path fill="#F9F3F2" opacity="1.000000" stroke="none" 
	d="
M294.016846,128.050110 
	C292.923462,123.504295 292.111145,119.110878 291.225800,114.352226 
	C292.923584,114.673477 294.694427,115.359947 296.563690,116.084579 
	C296.363403,120.329613 296.149902,124.854881 295.923248,129.659622 
	C295.403931,129.194092 294.850891,128.698288 294.016846,128.050110 
z"/>
<path fill="#E1292D" opacity="1.000000" stroke="none" 
	d="
M53.006748,103.962700 
	C53.387348,103.922279 53.767944,103.881859 54.795425,104.009171 
	C56.960262,104.454384 58.478218,104.731857 59.870232,105.305603 
	C59.499115,106.411240 59.253937,107.220619 58.804871,108.134911 
	C58.600990,108.239830 58.166836,108.387520 58.003426,108.096024 
	C56.906704,108.547737 55.973389,109.290932 55.028107,110.026352 
	C55.016140,110.018578 55.037792,110.034508 54.755669,109.909882 
	C53.876869,109.550659 53.164581,108.979256 52.702839,109.137756 
	C50.261803,109.975670 50.283672,110.039383 48.932510,107.674133 
	C48.936970,107.441010 48.930325,106.974731 48.930325,106.974731 
	C48.930325,106.974731 48.999474,106.994148 49.262089,106.824829 
	C50.685383,105.757904 51.846066,104.860298 53.006748,103.962700 
z"/>
<path fill="#F9F4F2" opacity="1.000000" stroke="none" 
	d="
M165.514740,128.885010 
	C165.933060,128.992477 165.949509,129.190811 165.981873,129.687073 
	C166.811142,131.038177 167.624496,132.091370 168.437851,133.144577 
	C168.352707,133.521347 168.267578,133.898132 168.182434,134.274918 
	C163.166840,132.960495 158.151230,131.646088 153.146484,129.965393 
	C157.142517,129.391373 161.127701,129.183640 165.514740,128.885010 
z"/>
<path fill="#F8F3F0" opacity="1.000000" stroke="none" 
	d="
M183.516510,101.693893 
	C182.549286,99.934647 181.807938,97.904404 180.413452,95.461243 
	C177.886353,95.046593 176.012375,95.044861 174.138397,95.043129 
	C173.563522,94.847046 172.988647,94.650963 172.034088,94.325378 
	C179.426910,92.527191 182.439713,92.551857 184.085709,95.468132 
	C184.907715,96.924507 183.914520,99.405411 183.516510,101.693893 
z"/>
<path fill="#F6F7F3" opacity="1.000000" stroke="none" 
	d="
M275.944641,90.505447 
	C278.504791,89.703835 280.514221,86.485756 283.413574,89.162849 
	C284.068115,88.204536 284.722626,87.246223 285.626434,85.991714 
	C286.066833,86.641556 286.257996,87.587593 286.724548,88.766815 
	C287.000000,89.000000 286.998779,88.999084 286.998779,88.999084 
	C286.391663,89.943436 285.859039,91.635155 285.164734,91.704323 
	C281.950897,92.024475 278.692139,91.893913 274.980957,91.873474 
	C274.939789,91.462517 275.367188,91.102867 275.944641,90.505447 
z"/>
<path fill="#CA696B" opacity="1.000000" stroke="none" 
	d="
M174.089111,95.370514 
	C176.012375,95.044861 177.886353,95.046593 180.080841,95.297302 
	C178.674286,95.983322 176.947220,96.420372 174.890793,96.940758 
	C174.890793,105.066246 174.890793,113.197777 174.765427,121.804306 
	C174.438446,116.823616 174.236832,111.367912 173.959473,105.448975 
	C173.923477,102.944839 173.963257,100.903954 173.998749,98.182007 
	C173.953430,97.337067 173.912415,97.173187 173.871384,97.009300 
	C173.927536,96.572166 173.983673,96.135040 174.089111,95.370514 
z"/>
<path fill="#F8F3F0" opacity="1.000000" stroke="none" 
	d="
M188.014160,128.924744 
	C187.655975,126.820740 187.596603,124.763420 187.206024,122.481392 
	C189.677338,120.188553 191.248886,120.689865 191.353256,124.372017 
	C191.375137,125.144302 191.611664,125.910873 191.629486,126.682838 
	C191.658447,127.937332 191.588562,129.194107 191.560394,130.449921 
	C190.477921,129.957092 189.395462,129.464264 188.014160,128.924744 
z"/>
<path fill="#C33D45" opacity="1.000000" stroke="none" 
	d="
M270.020203,27.035177 
	C262.369965,27.020075 254.718933,27.061718 247.069916,26.956747 
	C244.642578,26.923435 242.687103,27.098913 242.736740,30.568050 
	C242.254303,29.478689 241.930664,28.058758 241.453873,25.966850 
	C250.983582,25.966850 260.027130,25.966850 269.597717,26.241112 
	C270.089905,26.688643 270.055054,26.861910 270.020203,27.035177 
z"/>
<path fill="#F9F4F2" opacity="1.000000" stroke="none" 
	d="
M131.924896,102.512421 
	C129.313873,104.252144 126.613075,105.633621 123.598656,107.148674 
	C123.637817,101.592628 126.628662,99.798813 131.924896,102.512421 
z"/>
<path fill="#F9F4F2" opacity="1.000000" stroke="none" 
	d="
M122.895020,107.166298 
	C122.252426,108.665237 121.206367,110.045097 119.543510,111.717926 
	C118.322060,112.079292 117.717400,112.147690 117.112747,112.216080 
	C116.982742,111.890961 116.852745,111.565849 116.708984,111.129745 
	C116.765572,106.977745 118.250954,105.001907 122.895020,107.166298 
z"/>
<path fill="#F6F7F3" opacity="1.000000" stroke="none" 
	d="
M281.611023,68.068893 
	C283.274506,64.682381 285.264740,61.340519 287.556305,57.806541 
	C287.063568,61.006775 286.388397,64.437080 285.332611,67.745934 
	C285.192566,68.184860 283.116943,68.006187 281.611023,68.068893 
z"/>
<path fill="#F9F8F7" opacity="1.000000" stroke="none" 
	d="
M111.078766,91.141655 
	C113.663170,90.190987 116.397629,89.557510 119.526756,88.878250 
	C119.769173,89.858093 119.628761,91.774323 119.462875,91.776527 
	C116.720085,91.813034 113.974098,91.609001 111.078766,91.141655 
z"/>
<path fill="#F9F8F7" opacity="1.000000" stroke="none" 
	d="
M98.975311,89.653687 
	C99.478691,89.516403 99.969315,89.738029 100.730225,90.088638 
	C101.964401,91.584625 102.928276,92.951637 103.945724,94.659782 
	C103.999290,95.000916 104.000000,95.000000 104.000458,94.999542 
	C101.925201,95.143196 99.849487,95.287300 96.835388,95.496559 
	C97.624527,93.462105 98.293533,91.737343 98.975311,89.653687 
z"/>
<path fill="#F7EEEC" opacity="1.000000" stroke="none" 
	d="
M35.826576,112.101181 
	C35.621586,106.941833 40.502842,110.363678 42.640888,108.146584 
	C43.622688,114.286987 38.254852,110.521957 35.826576,112.101181 
z"/>
<path fill="#F0E4DC" opacity="1.000000" stroke="none" 
	d="
M269.344727,40.907578 
	C268.992035,40.782726 268.986481,40.602093 268.968903,40.150673 
	C269.413940,37.484646 269.871033,35.089413 270.489075,32.298477 
	C275.325195,35.420555 272.531372,38.138622 269.344727,40.907578 
z"/>
<path fill="#E12F36" opacity="1.000000" stroke="none" 
	d="
M59.996170,105.009338 
	C58.478218,104.731857 56.960262,104.454384 55.083466,104.016129 
	C58.372093,103.950943 62.019566,104.046547 65.840652,104.839424 
	C66.005287,106.019653 65.996300,106.502602 65.987312,106.985558 
	C65.987312,106.985558 65.503304,106.979408 65.039413,106.715302 
	C63.049072,105.970581 61.522621,105.489960 59.996170,105.009338 
z"/>
<path fill="#F9F3F2" opacity="1.000000" stroke="none" 
	d="
M225.999390,129.999390 
	C227.336411,131.709824 228.673431,133.420258 230.237503,135.421158 
	C229.107513,135.770096 227.534317,136.255905 225.138626,136.995712 
	C225.252274,134.511444 225.343430,132.519272 225.717285,130.263550 
	C226.000000,130.000000 225.999390,129.999390 225.999390,129.999390 
z"/>
<path fill="#F7EEEC" opacity="1.000000" stroke="none" 
	d="
M52.946350,103.623642 
	C51.846066,104.860298 50.685383,105.757904 49.239265,106.797089 
	C48.613903,105.154556 48.273983,103.370445 47.681961,100.263115 
	C50.260750,101.760376 51.573353,102.522484 52.946350,103.623642 
z"/>
<path fill="#E82F34" opacity="1.000000" stroke="none" 
	d="
M48.928047,107.907257 
	C50.283672,110.039383 50.261803,109.975670 52.702839,109.137756 
	C53.164581,108.979256 53.876869,109.550659 54.658813,110.173767 
	C54.559155,111.046188 54.274239,111.530113 53.677025,112.048767 
	C52.574486,112.723656 51.784241,113.363815 50.993996,114.003983 
	C50.014324,112.846733 49.034649,111.689484 48.009426,109.978943 
	C47.963875,109.425652 47.826817,108.999565 47.826817,108.999565 
	C47.826817,108.999565 48.006721,108.571640 48.256710,108.304657 
	C48.506699,108.037666 48.928047,107.907257 48.928047,107.907257 
z"/>
<path fill="#D82526" opacity="1.000000" stroke="none" 
	d="
M66.128769,107.277603 
	C65.996300,106.502602 66.005287,106.019653 66.038910,105.175110 
	C68.620026,106.912544 71.581818,108.826042 69.461868,112.995270 
	C68.189171,111.235443 67.229698,109.402542 66.128769,107.277603 
z"/>
<path fill="#F8F3F0" opacity="1.000000" stroke="none" 
	d="
M184.024582,121.499313 
	C183.722382,116.627357 183.424896,111.290825 183.215485,105.497375 
	C183.545471,110.371880 183.787384,115.703300 184.024582,121.499313 
z"/>
<path fill="#F9F3F2" opacity="1.000000" stroke="none" 
	d="
M266.641937,107.905319 
	C264.715332,107.930244 263.093628,107.849945 261.471893,107.769653 
	C261.618256,107.105919 261.764618,106.442192 261.911011,105.778458 
	C263.589600,106.452339 265.268219,107.126213 266.641937,107.905319 
z"/>
<path fill="#F8F3F0" opacity="1.000000" stroke="none" 
	d="
M164.933609,103.920319 
	C163.812317,103.891144 162.736664,103.527435 161.321594,103.041626 
	C161.596024,102.104515 162.209839,101.289505 162.823669,100.474495 
	C163.542191,101.511589 164.260712,102.548691 164.933609,103.920319 
z"/>
<path fill="#FAF7FA" opacity="1.000000" stroke="none" 
	d="
M204.700317,33.842781 
	C204.255432,33.686401 203.810562,33.530025 202.683411,33.187065 
	C202.000748,31.933788 202.000351,30.867100 202.355408,29.400269 
	C203.419846,28.998285 204.128860,28.996445 204.900116,29.343309 
	C204.875015,31.075603 204.787659,32.459190 204.700317,33.842781 
z"/>
<path fill="#F9F3F2" opacity="1.000000" stroke="none" 
	d="
M223.316620,125.609772 
	C225.004532,126.621002 226.491302,127.972488 228.216827,129.578583 
	C227.910263,129.882935 227.364929,129.932693 226.409500,129.990906 
	C225.999390,129.999390 226.000000,130.000000 226.000305,130.000305 
	C225.443115,128.362518 220.569397,129.798721 223.316620,125.609772 
z"/>
<path fill="#FAF8EF" opacity="1.000000" stroke="none" 
	d="
M84.421440,105.719147 
	C84.020287,103.316452 83.854958,100.653481 83.669373,97.547134 
	C86.979904,99.527451 85.110657,102.578575 84.421440,105.719147 
z"/>
<path fill="#F9F3F2" opacity="1.000000" stroke="none" 
	d="
M218.032379,116.030121 
	C217.994644,114.865654 217.994644,114.039864 217.994644,113.214066 
	C218.447403,113.188156 218.900177,113.162247 219.352936,113.136337 
	C219.352936,114.553589 219.352936,115.970848 219.352936,117.388107 
	C218.925323,117.048340 218.497711,116.708572 218.032379,116.030121 
z"/>
<path fill="#F9F3F2" opacity="1.000000" stroke="none" 
	d="
M229.056702,130.373596 
	C230.702744,130.006958 232.414078,129.986908 234.552856,129.963730 
	C233.189346,131.461884 231.440384,133.286911 229.056702,130.373596 
z"/>
<path fill="#F6F7F3" opacity="1.000000" stroke="none" 
	d="
M287.560791,80.929459 
	C287.023651,80.371391 286.819580,79.731293 286.302307,78.948105 
	C286.792297,78.359917 287.595459,77.914825 288.398621,77.469727 
	C288.230347,78.595619 288.062073,79.721527 287.560791,80.929459 
z"/>
<path fill="#F9F3F2" opacity="1.000000" stroke="none" 
	d="
M259.117676,133.076797 
	C259.842560,133.786118 260.229614,134.484329 260.616699,135.182556 
	C259.766998,135.093231 258.917297,135.003891 258.067596,134.914566 
	C258.305023,134.298279 258.542450,133.681992 259.117676,133.076797 
z"/>
<path fill="#F9F8F7" opacity="1.000000" stroke="none" 
	d="
M114.453804,94.125435 
	C115.683128,94.181290 116.569267,94.311363 117.455399,94.441444 
	C117.220375,94.897972 116.985359,95.354500 116.750336,95.811028 
	C115.870430,95.273911 114.990524,94.736786 114.453804,94.125435 
z"/>
<path fill="#F6F7F3" opacity="1.000000" stroke="none" 
	d="
M231.825363,91.806519 
	C232.268463,92.840233 232.506027,93.629044 232.883911,94.699944 
	C232.043915,94.397217 231.063629,93.812401 230.083328,93.227577 
	C230.595490,92.672264 231.107651,92.116943 231.825363,91.806519 
z"/>
<path fill="#F9F4F2" opacity="1.000000" stroke="none" 
	d="
M136.177399,130.171875 
	C137.094696,129.348831 138.230072,128.811050 139.687805,128.197372 
	C140.041702,130.813538 138.857208,131.623703 136.177399,130.171875 
z"/>
<path fill="#FCFDFE" opacity="1.000000" stroke="none" 
	d="
M202.032791,130.333755 
	C202.401505,129.789124 202.802414,129.581268 203.746429,129.178101 
	C204.289551,128.982773 204.343933,129.267563 204.264526,129.599808 
	C204.427628,130.293518 204.670120,130.654984 204.912613,131.016464 
	C204.912613,131.016464 205.001633,131.053223 204.981812,131.097809 
	C204.961990,132.078674 204.961990,133.014938 204.961990,135.335037 
	C203.559189,133.076401 202.812088,131.873474 202.032791,130.333755 
z"/>
<path fill="#F6E9E7" opacity="1.000000" stroke="none" 
	d="
M271.003296,46.572731 
	C270.136688,46.729202 269.251404,46.562687 268.212402,46.079285 
	C269.360382,43.965195 270.507416,43.096703 271.003296,46.572731 
z"/>
<path fill="#F9F3F2" opacity="1.000000" stroke="none" 
	d="
M273.746582,135.531372 
	C274.334839,134.844452 275.157379,134.377197 275.979950,133.909943 
	C276.153961,134.370529 276.327972,134.831131 276.502014,135.291718 
	C275.661652,135.444824 274.821289,135.597931 273.746582,135.531372 
z"/>
<path fill="#F0E4DC" opacity="1.000000" stroke="none" 
	d="
M270.113373,27.416418 
	C270.055054,26.861910 270.089905,26.688643 270.066803,26.256706 
	C270.008820,25.998035 270.487152,25.940979 270.745605,25.970779 
	C271.004028,26.000580 271.045532,26.035488 271.045532,26.035488 
	C271.087524,27.366512 271.129486,28.697536 270.880005,30.062267 
	C270.461212,29.329868 270.333862,28.563765 270.113373,27.416418 
z"/>
<path fill="#F9F8F7" opacity="1.000000" stroke="none" 
	d="
M99.718491,103.374535 
	C99.150795,104.054291 98.415016,104.479279 97.342766,104.957565 
	C97.151405,103.434837 96.692924,101.046768 99.718491,103.374535 
z"/>
<path fill="#FAF8EF" opacity="1.000000" stroke="none" 
	d="
M84.895157,120.929207 
	C84.581490,118.879303 84.308624,116.379173 84.112396,113.450089 
	C84.438011,115.507088 84.686981,117.993034 84.895157,120.929207 
z"/>
<path fill="#F7E9E7" opacity="1.000000" stroke="none" 
	d="
M114.916702,122.496620 
	C115.052704,122.078819 115.241684,122.055740 115.715790,122.016571 
	C115.795975,123.619026 115.591034,125.237595 115.024796,126.851021 
	C114.765549,125.527702 114.867615,124.209518 114.916702,122.496620 
z"/>
<path fill="#F9F8F7" opacity="1.000000" stroke="none" 
	d="
M98.002930,98.632309 
	C99.087784,98.347031 100.270882,98.347031 101.453972,98.347031 
	C101.402229,98.765625 101.350479,99.184219 101.298737,99.602814 
	C100.232887,99.374405 99.167030,99.145996 98.002930,98.632309 
z"/>
<path fill="#FAF7FA" opacity="1.000000" stroke="none" 
	d="
M207.035095,131.101105 
	C206.939026,130.410660 206.974670,130.003036 207.081406,129.295868 
	C207.735092,129.914902 208.317703,130.833511 208.900299,131.752106 
	C208.322464,131.629379 207.744644,131.506653 207.035095,131.101105 
z"/>
<path fill="#FAF7FA" opacity="1.000000" stroke="none" 
	d="
M201.999664,27.000568 
	C202.755295,26.571594 203.510941,26.142622 204.509308,25.848614 
	C204.752029,25.983578 204.969666,26.080507 204.987762,26.303995 
	C204.935837,26.686861 204.865829,26.846239 204.447113,27.003170 
	C203.398834,27.000671 202.699249,27.000618 201.999664,27.000568 
z"/>
<path fill="#E82F34" opacity="1.000000" stroke="none" 
	d="
M56.977905,119.227470 
	C58.712784,119.075790 60.455502,119.028931 62.632751,119.008934 
	C61.301529,119.274185 59.535778,119.512566 57.390629,119.645935 
	C57.011230,119.540932 56.985741,119.332283 56.977905,119.227470 
z"/>
<path fill="#F9F3F2" opacity="1.000000" stroke="none" 
	d="
M219.523193,125.696159 
	C219.528839,126.449120 219.324631,126.983276 219.120422,127.517433 
	C218.847305,127.382797 218.574188,127.248169 218.301086,127.113533 
	C218.638489,126.568138 218.975906,126.022751 219.523193,125.696159 
z"/>
<path fill="#F9F3F2" opacity="1.000000" stroke="none" 
	d="
M288.142090,129.935669 
	C288.875732,129.710403 289.592224,129.842194 290.663025,130.062775 
	C290.164398,132.477325 289.202576,132.571472 288.142090,129.935669 
z"/>
<path fill="#FCFDFE" opacity="1.000000" stroke="none" 
	d="
M201.999756,27.333862 
	C202.699249,27.000618 203.398834,27.000671 204.518478,27.332043 
	C204.904968,28.107107 204.871414,28.550854 204.837860,28.994602 
	C204.128860,28.996445 203.419846,28.998285 202.355499,29.000158 
	C202.000061,28.555845 201.999954,28.111500 201.999756,27.333862 
z"/>
<path fill="#F6F7F3" opacity="1.000000" stroke="none" 
	d="
M226.204315,63.192234 
	C226.764664,62.947372 227.263809,63.000965 227.762939,63.054558 
	C227.649307,63.502857 227.535675,63.951157 227.422043,64.399460 
	C226.995728,64.096542 226.569412,63.793613 226.204315,63.192234 
z"/>
<path fill="#F9F8F7" opacity="1.000000" stroke="none" 
	d="
M122.052170,87.966850 
	C122.633957,87.313675 123.410469,86.971001 124.520004,86.608505 
	C123.984322,87.151581 123.115616,87.714462 122.052170,87.966850 
z"/>
<path fill="#F7EEEC" opacity="1.000000" stroke="none" 
	d="
M30.879669,97.084541 
	C30.339783,97.946495 29.416962,98.772682 28.220098,99.745270 
	C28.796282,98.944046 29.646509,97.996407 30.879669,97.084541 
z"/>
<path fill="#F7EEEC" opacity="1.000000" stroke="none" 
	d="
M51.528290,99.017502 
	C50.946377,99.414581 50.369083,99.512901 49.791790,99.611221 
	C49.797581,99.203690 49.803371,98.796150 49.809162,98.388626 
	C50.383743,98.498657 50.958324,98.608696 51.528290,99.017502 
z"/>
<path fill="#F9F3F2" opacity="1.000000" stroke="none" 
	d="
M291.534851,136.390198 
	C291.650635,135.941711 291.933411,135.666672 292.234131,135.412933 
	C292.241943,135.406342 292.446533,135.632996 292.559387,135.750870 
	C292.274323,136.022720 291.989258,136.294586 291.534851,136.390198 
z"/>
<path fill="#F6F7F3" opacity="1.000000" stroke="none" 
	d="
M286.356201,84.964394 
	C286.140137,84.433105 286.226044,83.861893 286.537415,83.103020 
	C286.727966,83.585060 286.693085,84.254761 286.356201,84.964394 
z"/>
<path fill="#F9F3F2" opacity="1.000000" stroke="none" 
	d="
M256.465210,108.608795 
	C256.349640,109.056694 256.065247,109.328438 255.780869,109.600182 
	C255.668411,109.482468 255.555939,109.364761 255.443451,109.247047 
	C255.727783,108.975578 256.012115,108.704117 256.465210,108.608795 
z"/>
<path fill="#F9F3F2" opacity="1.000000" stroke="none" 
	d="
M235.897354,105.639313 
	C236.168213,105.364807 236.571030,105.251793 236.981644,105.195671 
	C237.052719,105.185959 237.156708,105.417145 237.245483,105.537064 
	C236.840973,105.631401 236.436478,105.725739 235.897354,105.639313 
z"/>
<path fill="#F6F7F3" opacity="1.000000" stroke="none" 
	d="
M287.000305,89.000458 
	C287.394135,88.566261 287.787628,88.131615 288.181152,87.696960 
	C288.326111,87.877319 288.471069,88.057663 288.616028,88.238007 
	C288.257263,88.475311 287.898529,88.712616 287.269287,88.974503 
	C286.998779,88.999084 287.000000,89.000000 287.000305,89.000458 
z"/>
<path fill="#F6F7F3" opacity="1.000000" stroke="none" 
	d="
M233.041870,95.274536 
	C233.681534,95.081398 234.347900,95.186241 235.273315,95.513107 
	C234.711090,95.680931 233.889816,95.626724 233.041870,95.274536 
z"/>
<path fill="#F6F7F3" opacity="1.000000" stroke="none" 
	d="
M231.451538,60.072029 
	C231.737076,60.357357 231.832642,60.894897 231.862610,61.705811 
	C231.618546,61.427532 231.440048,60.875885 231.451538,60.072029 
z"/>
<path fill="#F9F3F2" opacity="1.000000" stroke="none" 
	d="
M219.601944,120.279297 
	C219.440826,120.151657 219.417450,119.930504 219.394089,119.709358 
	C219.509277,119.868172 219.624481,120.026985 219.601944,120.279297 
z"/>
<path fill="#F9F3F2" opacity="1.000000" stroke="none" 
	d="
M243.723969,106.601135 
	C243.850235,106.442146 244.068771,106.419312 244.287292,106.396477 
	C244.130280,106.510086 243.973251,106.623688 243.723969,106.601135 
z"/>
<path fill="#F8F3F0" opacity="1.000000" stroke="none" 
	d="
M167.278305,98.399521 
	C167.151306,98.559479 166.931305,98.582535 166.711304,98.605591 
	C166.869308,98.491272 167.027313,98.376945 167.278305,98.399521 
z"/>
<path fill="#F7EEEC" opacity="1.000000" stroke="none" 
	d="
M54.274940,98.401611 
	C54.149387,98.558968 53.931866,98.581322 53.714348,98.603683 
	C53.870560,98.491325 54.026768,98.378967 54.274940,98.401611 
z"/>
<path fill="#F6F7F3" opacity="1.000000" stroke="none" 
	d="
M226.829987,41.032345 
	C227.116943,41.462357 227.126999,41.877621 227.197083,42.600674 
	C226.859192,42.481186 226.461273,42.053917 226.031677,41.313324 
	C226.000000,41.000000 225.998779,41.001518 225.998779,41.001518 
	C226.183548,41.006878 226.368332,41.012241 226.829987,41.032345 
z"/>
<path fill="#F6F7F3" opacity="1.000000" stroke="none" 
	d="
M226.000748,40.999405 
	C225.880142,40.858402 225.758789,40.717991 225.637451,40.577576 
	C225.722122,40.627014 225.806793,40.676456 225.945129,40.863708 
	C225.998779,41.001518 226.000000,41.000000 226.000748,40.999405 
z"/>
<path fill="#F8F3F0" opacity="1.000000" stroke="none" 
	d="
M175.187927,126.024475 
	C175.423477,126.008614 175.664246,126.240959 175.871185,126.734146 
	C175.516617,126.848755 175.301880,126.607986 175.187927,126.024475 
z"/>
<path fill="#F9F3F2" opacity="1.000000" stroke="none" 
	d="
M296.531067,131.549942 
	C296.475891,131.582642 296.586273,131.517242 296.531067,131.549942 
z"/>
<path fill="#F7EEEC" opacity="1.000000" stroke="none" 
	d="
M47.637215,109.130936 
	C47.826817,108.999565 47.963875,109.425652 47.958092,109.649368 
	C47.952309,109.873077 47.508377,110.016617 47.276978,110.045975 
	C47.079830,109.754982 47.213844,109.483978 47.637215,109.130936 
z"/>
<path fill="#F9F3F2" opacity="1.000000" stroke="none" 
	d="
M296.467834,133.450989 
	C296.522003,133.418915 296.413635,133.483078 296.467834,133.450989 
z"/>
<path fill="#F9F3F2" opacity="1.000000" stroke="none" 
	d="
M264.467651,134.449280 
	C264.523224,134.416092 264.412079,134.482483 264.467651,134.449280 
z"/>
<path fill="#F0E4DC" opacity="1.000000" stroke="none" 
	d="
M270.986267,25.980104 
	C271.074677,25.941238 271.180817,25.922846 271.166260,25.969971 
	C271.045532,26.035488 271.004028,26.000580 270.986267,25.980104 
z"/>
<path fill="#F7EEEC" opacity="1.000000" stroke="none" 
	d="
M48.932510,107.674133 
	C48.928047,107.907257 48.506699,108.037666 48.289749,108.074921 
	C48.213329,107.816994 48.353859,107.521820 48.712357,107.100693 
	C48.930325,106.974731 48.936970,107.441010 48.932510,107.674133 
z"/>
<path fill="#F9F4F2" opacity="1.000000" stroke="none" 
	d="
M149.117645,127.432755 
	C149.346802,127.213768 149.590378,127.334274 149.822815,127.819389 
	C149.616913,127.964729 149.390366,127.827477 149.117645,127.432755 
z"/>
<path fill="#F9F3F2" opacity="1.000000" stroke="none" 
	d="
M225.550369,106.468330 
	C225.582901,106.522888 225.517838,106.413773 225.550369,106.468330 
z"/>
<path fill="#F8F3F0" opacity="1.000000" stroke="none" 
	d="
M186.509216,122.958435 
	C186.483749,122.936737 186.515564,123.265656 186.515564,123.265656 
	C186.515564,123.265656 186.437454,123.135010 186.513550,123.038490 
	C186.589645,122.941971 186.534683,122.980141 186.509216,122.958435 
z"/>
<path fill="#F8F3F0" opacity="1.000000" stroke="none" 
	d="
M170.550293,96.467888 
	C170.583176,96.523041 170.517410,96.412735 170.550293,96.467888 
z"/>
<path fill="#F9F3F2" opacity="1.000000" stroke="none" 
	d="
M284.532288,105.550385 
	C284.477539,105.583008 284.587006,105.517769 284.532288,105.550385 
z"/>
<path fill="#F8F3F0" opacity="1.000000" stroke="none" 
	d="
M173.723755,97.102364 
	C173.912415,97.173187 173.953430,97.337067 173.938354,97.748077 
	C173.780212,97.728615 173.678177,97.462021 173.723755,97.102364 
z"/>
<path fill="#F8F3F0" opacity="1.000000" stroke="none" 
	d="
M184.846497,122.426865 
	C184.679825,122.548859 184.401230,122.515602 184.079483,122.233032 
	C184.301041,122.002174 184.533798,122.098137 184.846497,122.426865 
z"/>
<path fill="#F9F8F7" opacity="1.000000" stroke="none" 
	d="
M110.774338,103.650848 
	C110.582314,103.809067 110.176979,103.738968 109.559158,103.436775 
	C109.751457,103.277298 110.156242,103.349915 110.774338,103.650848 
z"/>
<path fill="#F7EEEC" opacity="1.000000" stroke="none" 
	d="
M27.690205,100.085358 
	C27.762058,100.257668 27.623863,100.549011 27.251091,100.935265 
	C27.062872,100.694160 27.217419,100.418900 27.690205,100.085358 
z"/>
<path fill="#F9F3F2" opacity="1.000000" stroke="none" 
	d="
M222.690552,120.093674 
	C222.880722,120.170967 222.922897,120.337273 222.884705,120.748093 
	C222.663162,120.823471 222.502182,120.665794 222.393692,120.477821 
	C222.363495,120.425507 222.488663,120.283531 222.690552,120.093674 
z"/>
<path fill="#FDFBFA" opacity="1.000000" stroke="none" 
	d="
M115.994675,52.936440 
	C115.258667,53.144577 114.522667,53.352718 113.338821,53.253868 
	C112.640984,53.112564 112.390984,53.278248 112.140984,53.443932 
	C111.307533,53.582169 110.474075,53.720402 109.283920,53.623116 
	C106.176804,51.973450 106.415955,54.022358 106.437103,55.613647 
	C106.486160,59.305553 106.495338,63.007973 106.826370,66.678566 
	C106.901520,67.511894 108.219032,68.233170 108.964699,69.006027 
	C112.139069,70.804298 115.313438,72.602577 118.487801,74.400848 
	C119.159592,74.080315 119.831383,73.759773 120.503174,73.439240 
	C119.736649,76.165680 119.815048,80.054321 118.016815,81.361641 
	C114.872971,83.647232 111.040291,85.328255 106.354424,83.692184 
	C100.816704,81.758675 97.138069,78.469803 95.793228,72.983719 
	C95.175720,70.464638 95.888458,67.630898 95.920731,64.938927 
	C96.014229,57.138542 96.068604,49.337696 96.810539,41.234871 
	C98.998077,40.932709 100.513397,40.932709 102.513695,40.932709 
	C101.289246,39.165230 100.480659,37.998051 99.672081,36.830872 
	C99.728050,36.484417 99.902328,36.214294 100.762863,36.001251 
	C105.230644,38.721184 104.979378,35.798889 105.021111,33.276199 
	C105.764893,33.169373 106.508675,33.062546 107.625732,33.463905 
	C107.661140,37.436684 107.323280,40.901272 106.985420,44.365864 
	C107.528511,44.387707 108.071602,44.409554 108.614693,44.431400 
	C108.809982,43.811562 109.005272,43.191723 109.200562,42.571888 
	C109.200569,42.571888 109.635925,42.649715 109.994156,43.069481 
	C113.233604,43.338932 116.114815,43.188618 118.996025,43.038307 
	C119.164871,42.994621 119.333710,42.950935 119.749191,43.436935 
	C120.118233,45.722599 120.240639,47.478580 120.363045,49.234562 
	C120.363045,49.234562 120.472542,49.352303 120.097435,49.253380 
	C118.748619,48.237686 117.774918,47.320919 115.994675,45.644772 
	C115.994675,48.747784 115.994675,50.842113 115.994675,52.936440 
M109.892952,47.719906 
	C109.806480,47.670273 109.720009,47.620644 109.633537,47.571014 
	C109.755386,47.714222 109.877235,47.857430 110.107994,48.275223 
	C110.192924,48.324310 110.277847,48.373398 110.362778,48.422485 
	C110.242058,48.281403 110.121330,48.140320 109.892952,47.719906 
z"/>
<path fill="#F9F6F2" opacity="1.000000" stroke="none" 
	d="
M109.016220,68.541794 
	C108.219032,68.233170 106.901520,67.511894 106.826370,66.678566 
	C106.495338,63.007973 106.486160,59.305553 106.437103,55.613647 
	C106.415955,54.022358 106.176804,51.973450 108.973839,53.698898 
	C109.036224,58.699318 109.051987,63.388435 109.016220,68.541794 
z"/>
<path fill="#F9F6F2" opacity="1.000000" stroke="none" 
	d="
M116.338593,52.962181 
	C115.994675,50.842113 115.994675,48.747784 115.994675,45.644772 
	C117.774918,47.320919 118.748619,48.237686 120.086227,49.332985 
	C119.194252,50.670319 117.938377,51.829117 116.338593,52.962181 
z"/>
<path fill="#F9F6F2" opacity="1.000000" stroke="none" 
	d="
M109.150337,42.155556 
	C109.005272,43.191723 108.809982,43.811562 108.614693,44.431400 
	C108.071602,44.409554 107.528511,44.387707 106.985420,44.365864 
	C107.323280,40.901272 107.661140,37.436684 107.996033,33.545090 
	C108.362076,35.991802 108.731094,38.865513 109.150337,42.155556 
z"/>
<path fill="#F8F4F2" opacity="1.000000" stroke="none" 
	d="
M99.363449,36.941711 
	C100.480659,37.998051 101.289246,39.165230 102.513695,40.932709 
	C100.513397,40.932709 98.998077,40.932709 97.071404,40.895691 
	C97.458313,39.589966 98.256569,38.321259 99.363449,36.941711 
z"/>
<path fill="#F8F4F2" opacity="1.000000" stroke="none" 
	d="
M104.699707,33.305927 
	C104.979378,35.798889 105.230644,38.721184 100.997223,35.923859 
	C101.901863,35.022366 103.140083,34.179008 104.699707,33.305927 
z"/>
<path fill="#F9F6F2" opacity="1.000000" stroke="none" 
	d="
M118.553726,42.945728 
	C116.114815,43.188618 113.233604,43.338932 110.167091,43.207298 
	C112.691666,42.901283 115.401550,42.877216 118.553726,42.945728 
z"/>
<path fill="#F9F6F2" opacity="1.000000" stroke="none" 
	d="
M120.606171,48.942741 
	C120.240639,47.478580 120.118233,45.722599 119.993698,43.529953 
	C120.277466,44.945835 120.563377,46.798378 120.606171,48.942741 
z"/>
<path fill="#F9F6F2" opacity="1.000000" stroke="none" 
	d="
M112.367599,53.518364 
	C112.390984,53.278248 112.640984,53.112564 112.961075,53.174110 
	C113.031166,53.401344 112.594215,53.592796 112.367599,53.518364 
z"/>
<path fill="#CE4C54" opacity="1.000000" stroke="none" 
	d="
M235.975922,83.998032 
	C236.772491,84.326210 237.585526,84.676674 238.699387,85.037460 
	C238.666275,86.158333 238.332336,87.268883 238.022827,88.730103 
	C236.886932,88.312119 235.726608,87.543465 234.610718,86.339691 
	C235.117706,85.268623 235.580261,84.632690 236.042816,83.996758 
	C236.042816,83.996758 235.992401,84.020317 235.975922,83.998032 
z"/>
<path fill="#F0E4DC" opacity="1.000000" stroke="none" 
	d="
M236.006317,83.667419 
	C235.580261,84.632690 235.117706,85.268623 234.439362,86.118530 
	C233.466187,85.779396 232.708817,85.226280 231.957397,84.389084 
	C233.064392,83.376434 234.165451,82.647858 235.615540,81.966148 
	C235.966309,82.454704 235.968063,82.896385 236.006317,83.667419 
z"/>
<path fill="#F5E4E1" opacity="1.000000" stroke="none" 
	d="
M156.473984,115.000847 
	C155.397003,114.163315 153.921188,112.868408 154.095047,112.584801 
	C154.807587,111.422455 155.958115,109.871086 157.068817,109.767746 
	C158.649445,109.620689 160.336761,110.620537 161.978500,111.130409 
	C162.003113,111.739975 162.027740,112.349541 162.052353,112.959106 
	C160.312790,113.642227 158.573212,114.325340 156.473984,115.000847 
z"/>
<path fill="#F3E0D9" opacity="1.000000" stroke="none" 
	d="
M101.060860,111.404709 
	C102.491219,110.524170 103.807678,109.401505 105.014153,109.509346 
	C106.209129,109.616150 107.293175,110.963837 108.425880,111.767258 
	C107.369759,112.503494 106.128029,114.008278 105.298141,113.807838 
	C103.804672,113.447144 100.061768,116.848450 101.060860,111.404709 
z"/>
<path fill="#F7E9E7" opacity="1.000000" stroke="none" 
	d="
M103.882195,119.547562 
	C103.735313,120.582870 103.420532,121.310997 103.066833,122.335236 
	C102.846436,122.669762 102.664948,122.708183 102.246613,122.892456 
	C101.456192,122.077911 100.902603,121.117508 100.349022,120.157104 
	C101.470779,119.851532 102.592529,119.545959 103.882195,119.547562 
z"/>
<path fill="#F7E9E7" opacity="1.000000" stroke="none" 
	d="
M116.476433,115.592010 
	C115.766899,116.637840 114.738159,117.817673 113.318748,118.980133 
	C114.004463,117.883835 115.080841,116.804916 116.476433,115.592010 
z"/>
<path fill="#FEFEFE" opacity="1.000000" stroke="none" 
	d="
M117.033600,112.614510 
	C117.717400,112.147690 118.322060,112.079292 119.380737,112.012985 
	C119.879654,113.255402 119.924545,114.495728 119.638443,115.929321 
	C118.915771,116.035469 118.524109,115.948349 117.560165,115.657562 
	C116.995697,115.283768 117.003525,115.113632 117.434280,114.839127 
	C117.706680,114.667656 117.556152,114.600555 117.405624,114.533455 
	C117.255234,114.026611 117.104851,113.519775 117.033600,112.614510 
z"/>
<path fill="#F9F4F2" opacity="1.000000" stroke="none" 
	d="
M117.433365,114.553963 
	C117.556152,114.600555 117.706680,114.667656 117.630257,114.675232 
	C117.403305,114.615715 117.461098,114.574471 117.433365,114.553963 
z"/>
<path fill="#F7E9E7" opacity="1.000000" stroke="none" 
	d="
M107.715836,119.375626 
	C107.931282,119.481102 107.552124,119.698082 107.552124,119.698082 
	C107.552124,119.698082 107.159157,119.532600 107.089943,119.396584 
	C107.020729,119.260567 107.500389,119.270142 107.715836,119.375626 
z"/>
<path fill="#F7E9E7" opacity="1.000000" stroke="none" 
	d="
M111.744705,119.071480 
	C111.735512,119.236755 111.476570,119.357094 111.117493,119.337799 
	C111.176567,119.140945 111.335770,119.083740 111.744705,119.071480 
z"/>
<path fill="#DD2E33" opacity="1.000000" stroke="none" 
	d="
M241.044342,128.935974 
	C237.658829,122.314499 238.910812,120.601852 248.850662,117.412796 
	C246.012146,117.412796 243.173630,117.412796 240.122894,117.412796 
	C239.979187,112.739227 243.158493,112.110886 246.624390,111.907898 
	C250.627121,111.673477 254.138275,112.603172 254.915939,117.167175 
	C255.356934,119.755150 255.161865,122.484207 254.996353,125.133675 
	C254.829239,127.808823 253.521149,129.363037 250.485031,129.136124 
	C247.628723,128.922653 244.746643,129.054153 241.485901,128.960999 
	C241.095917,128.888092 240.989929,128.978043 241.044342,128.935974 
z"/>
<path fill="#D83134" opacity="1.000000" stroke="none" 
	d="
M263.357788,117.677589 
	C262.218719,117.940956 261.332092,117.888412 260.061371,117.813103 
	C260.031708,117.211792 259.986572,116.297363 259.909821,115.044617 
	C259.866058,114.321732 259.853943,113.937157 259.917847,113.273407 
	C262.873688,112.732086 265.825592,111.989639 268.603424,112.406624 
	C270.032959,112.621208 271.152435,114.901268 272.742493,116.601326 
	C268.890564,116.922035 266.250366,117.141853 263.357788,117.677589 
z"/>
<path fill="#DA292C" opacity="1.000000" stroke="none" 
	d="
M128.982956,121.989853 
	C129.542908,119.671768 123.986336,117.888481 128.689224,115.130287 
	C129.840240,117.162895 130.696930,119.320755 131.617615,121.978180 
	C130.795227,122.328560 129.908813,122.179398 129.022415,122.030235 
	C129.022415,122.030235 128.997864,122.001862 128.982956,121.989853 
z"/>
<path fill="#DE2F31" opacity="1.000000" stroke="none" 
	d="
M129.017090,122.428940 
	C129.908813,122.179398 130.795227,122.328560 131.846344,122.242676 
	C132.305099,121.962311 132.582336,122.011589 132.992340,122.308136 
	C132.490341,123.597679 131.838760,124.734535 131.187180,125.871391 
	C130.462051,124.856804 129.736908,123.842224 129.017090,122.428940 
z"/>
<path fill="#FEFEFE" opacity="1.000000" stroke="none" 
	d="
M271.545715,110.403381 
	C271.893921,109.859505 272.422272,109.528351 272.950623,109.197205 
	C273.043427,109.444672 273.248230,109.889259 273.212067,109.909805 
	C272.736481,110.180122 272.226898,110.390610 271.545715,110.403381 
z"/>
<path fill="#EC202B" opacity="1.000000" stroke="none" 
	d="
M79.992828,100.665253 
	C80.060539,99.467918 80.128281,98.688698 80.212990,97.714279 
	C83.782784,101.334358 84.218147,118.072296 79.992859,122.581627 
	C79.992859,114.705406 79.992859,107.894394 79.992828,100.665253 
z"/>
<path fill="#E82F34" opacity="1.000000" stroke="none" 
	d="
M62.838131,113.652969 
	C63.363441,119.307953 58.424137,115.813629 56.256752,117.707176 
	C54.843178,119.033943 53.704105,120.073410 51.746304,121.860016 
	C51.238281,120.444580 50.393791,118.091690 49.981735,116.129303 
	C51.635521,115.941719 52.856865,115.363640 54.496616,114.863777 
	C57.556057,114.512321 60.197094,114.082642 62.838131,113.652969 
z"/>
<path fill="#E1292D" opacity="1.000000" stroke="none" 
	d="
M54.078209,114.785553 
	C52.856865,115.363640 51.635521,115.941719 50.211845,116.256531 
	C50.325047,115.527405 50.640575,115.061569 50.975052,114.299850 
	C51.784241,113.363815 52.574486,112.723656 53.693092,112.318535 
	C54.040375,113.297577 54.059292,114.041565 54.078209,114.785553 
z"/>
<path fill="#CE4C54" opacity="1.000000" stroke="none" 
	d="
M204.900116,29.343309 
	C204.871414,28.550854 204.904968,28.107107 204.867172,27.334488 
	C204.865829,26.846239 204.935837,26.686861 205.105530,26.286118 
	C205.472336,27.302435 205.971283,28.559856 205.972702,29.817842 
	C206.009018,61.871880 205.997086,93.925980 205.968140,125.980057 
	C205.967255,126.952454 205.693924,127.924599 205.120911,129.091263 
	C204.694214,129.285660 204.343933,129.267563 204.343933,129.267563 
	C204.343933,129.267563 204.289551,128.982773 204.326431,128.828217 
	C204.420883,110.137543 204.442978,91.601227 204.549240,73.065392 
	C204.613892,61.786259 204.832947,50.508057 204.917007,39.228947 
	C204.929108,37.607265 204.571838,35.982826 204.542908,34.101219 
	C204.787659,32.459190 204.875015,31.075603 204.900116,29.343309 
z"/>
<path fill="#FAF7FA" opacity="1.000000" stroke="none" 
	d="
M204.264526,129.599808 
	C204.343933,129.267563 204.694214,129.285660 204.847275,129.370148 
	C204.974899,129.714355 204.949478,129.974060 204.918335,130.625122 
	C204.670120,130.654984 204.427628,130.293518 204.264526,129.599808 
z"/>
<path fill="#F7E9E7" opacity="1.000000" stroke="none" 
	d="
M107.643951,123.328911 
	C107.749458,123.135963 108.060951,123.110451 108.841789,123.105209 
	C108.824066,123.249100 108.337013,123.372719 107.643951,123.328911 
z"/>
<path fill="#F4CFC8" opacity="1.000000" stroke="none" 
	d="
M54.496616,114.863785 
	C54.059292,114.041565 54.040375,113.297577 54.005390,112.283813 
	C54.274239,111.530113 54.559155,111.046188 54.940933,110.298386 
	C55.037792,110.034508 55.016140,110.018578 55.345726,110.003372 
	C56.505821,109.454613 57.336330,108.921066 58.166840,108.387520 
	C58.166836,108.387520 58.600990,108.239830 59.097000,108.311775 
	C61.021957,109.010429 62.450905,109.637146 63.879852,110.263855 
	C63.604076,111.205505 63.328300,112.147156 62.945328,113.370880 
	C60.197094,114.082642 57.556057,114.512321 54.496616,114.863785 
z"/>
<path fill="#D82526" opacity="1.000000" stroke="none" 
	d="
M64.013992,109.938385 
	C62.450905,109.637146 61.021957,109.010429 59.300880,108.206856 
	C59.253937,107.220619 59.499115,106.411240 59.870232,105.305603 
	C61.522621,105.489960 63.049072,105.970581 64.797409,106.711533 
	C64.728912,107.852211 64.438522,108.732559 64.013992,109.938385 
z"/>
<path fill="#FEFEFE" opacity="1.000000" stroke="none" 
	d="
M35.921814,102.132805 
	C36.149563,101.244659 36.475716,100.282639 36.801868,99.320625 
	C37.168930,99.512642 37.535995,99.704666 37.903061,99.896690 
	C37.437847,100.596115 36.972637,101.295540 36.162086,102.093208 
	C35.816746,102.191452 36.020210,102.058929 35.921814,102.132805 
z"/>
<path fill="#E12F36" opacity="1.000000" stroke="none" 
	d="
M58.003426,108.096024 
	C57.336330,108.921066 56.505821,109.454613 55.357697,110.011147 
	C55.973389,109.290932 56.906704,108.547737 58.003426,108.096024 
z"/>
<path fill="#F9F6F2" opacity="1.000000" stroke="none" 
	d="
M110.000610,47.999237 
	C110.121330,48.140320 110.242058,48.281403 110.362778,48.422485 
	C110.277847,48.373398 110.192924,48.324310 110.054001,48.137611 
	C110.000000,48.000000 110.000610,47.999237 110.000610,47.999237 
z"/>
<path fill="#F9F6F2" opacity="1.000000" stroke="none" 
	d="
M109.999542,48.000317 
	C109.877235,47.857430 109.755386,47.714222 109.633537,47.571014 
	C109.720009,47.620644 109.806480,47.670273 109.946777,47.859573 
	C110.000610,47.999237 110.000000,48.000000 109.999542,48.000317 
z"/>
</svg>